<?xml version="1.0" standalone="no"?>
<!DOCTYPE svg PUBLIC "-//W3C//DTD SVG 20010904//EN"
 "http://www.w3.org/TR/2001/REC-SVG-20010904/DTD/svg10.dtd">
<svg version="1.0" xmlns="http://www.w3.org/2000/svg"
 width="300.000000pt" height="51.000000pt" viewBox="0 0 300.000000 51.000000"
 preserveAspectRatio="xMidYMid meet">
<metadata>
Created by potrace 1.10, written by Peter Selinger 2001-2011
</metadata>
<g transform="translate(0.000000,51.000000) scale(0.100000,-0.100000)"
fill="#000000" stroke="none">
<path d="M1082 489 c-107 -21 -144 -74 -150 -214 -5 -108 8 -163 49 -210 37
-41 80 -55 174 -55 148 0 203 63 204 236 2 172 -44 234 -179 247 -30 3 -75 1
-98 -4z m185 -55 c48 -35 63 -78 63 -184 0 -106 -15 -149 -63 -184 -39 -29
-198 -31 -240 -3 -54 35 -62 61 -62 188 0 132 10 158 76 192 49 26 186 21 226
-9z"/>
<path d="M1082 381 c-20 -17 -22 -28 -22 -138 0 -79 4 -123 12 -131 7 -7 38
-12 69 -12 82 0 89 13 89 160 0 77 -4 120 -12 128 -20 20 -111 15 -136 -7z
m128 -119 c0 -71 -4 -112 -12 -120 -7 -7 -35 -12 -62 -12 l-51 0 3 107 c2 60
5 114 7 121 3 7 24 12 60 12 l55 0 0 -108z"/>
<path d="M20 255 l0 -237 148 4 c168 4 207 16 244 77 21 32 23 49 23 156 0
107 -2 124 -23 156 -37 61 -76 73 -244 77 l-148 4 0 -237z m312 182 c60 -25
78 -65 78 -174 0 -179 -28 -204 -232 -211 l-128 -4 0 207 0 208 123 -5 c79 -3
135 -11 159 -21z"/>
<path d="M152 388 c-8 -8 -12 -53 -12 -134 0 -116 1 -124 22 -138 32 -23 90
-20 122 5 25 20 26 23 26 133 0 97 -3 115 -18 129 -22 20 -122 23 -140 5z
m132 -34 c8 -20 8 -178 0 -198 -5 -12 -20 -16 -63 -16 l-56 0 0 115 0 115 56
0 c43 0 58 -4 63 -16z"/>
<path d="M500 255 l0 -235 73 0 72 0 -3 70 c-3 64 -2 70 16 70 14 0 27 -18 51
-70 l31 -70 81 0 81 0 -41 76 -41 76 29 33 c51 58 51 174 1 238 -29 37 -76 47
-222 47 l-128 0 0 -235z m306 182 c39 -20 44 -32 44 -116 0 -61 -3 -72 -30
-106 -16 -21 -30 -40 -30 -42 0 -2 14 -30 30 -63 l30 -60 -45 0 c-45 0 -46 1
-69 50 -40 87 -70 107 -108 73 -13 -12 -18 -30 -18 -70 l0 -53 -40 0 -40 0 0
206 0 206 123 -4 c87 -3 131 -9 153 -21z"/>
<path d="M625 381 c-13 -15 -16 -31 -13 -65 6 -59 22 -76 68 -76 30 0 43 6 59
26 25 32 27 81 5 112 -20 30 -93 31 -119 3z m103 -54 c3 -39 2 -41 -55 -51
l-33 -5 0 50 0 50 43 -3 c41 -3 42 -4 45 -41z"/>
<path d="M1415 255 l0 -235 73 0 72 0 1 108 c1 59 3 98 6 87 3 -11 30 -59 61
-107 l57 -88 70 0 70 0 0 235 0 235 -75 0 -75 0 2 -107 c1 -60 -1 -99 -4 -88
-2 11 -30 59 -61 107 l-57 87 -70 1 -70 0 0 -235z m121 197 c6 -4 39 -49 74
-100 58 -86 64 -92 79 -77 11 11 17 39 20 100 l3 85 39 0 39 0 0 -205 0 -205
-44 0 c-44 0 -46 1 -91 67 -25 38 -55 83 -66 102 -19 32 -21 33 -40 16 -16
-15 -19 -32 -19 -102 l0 -83 -40 0 -40 0 0 205 0 205 38 0 c20 0 42 -4 48 -8z"/>
<path d="M1900 255 l0 -235 165 0 165 0 0 60 0 60 -95 0 c-95 0 -95 0 -95 25
0 24 2 25 75 25 l75 0 0 55 0 55 -75 0 -75 0 0 35 0 35 85 0 85 0 0 29 c0 16
3 43 6 60 l7 31 -162 0 -161 0 0 -235z m278 178 c-3 -27 -5 -28 -68 -31 -35
-2 -70 -8 -77 -14 -16 -13 -17 -90 -1 -106 7 -7 38 -12 70 -12 55 0 58 -1 58
-25 0 -24 -3 -25 -58 -25 -65 0 -82 -11 -82 -54 0 -50 24 -66 102 -66 66 0 68
-1 68 -25 l0 -25 -130 0 -130 0 0 205 0 205 126 0 125 0 -3 -27z"/>
<path d="M2550 486 c0 -2 22 -54 50 -115 l49 -111 -45 -108 c-25 -59 -48 -113
-51 -119 -4 -10 14 -13 74 -13 l78 0 23 65 c13 36 27 67 31 70 5 2 20 -27 35
-65 l28 -70 83 0 83 0 -13 28 c-8 15 -32 69 -54 120 l-40 93 46 102 c25 56 50
108 56 115 7 9 -9 12 -75 12 l-84 0 -24 -65 c-13 -36 -27 -65 -30 -65 -3 0
-17 29 -30 65 l-24 65 -83 0 c-46 0 -83 -2 -83 -4z m172 -88 c20 -43 33 -58
48 -58 15 0 28 15 48 58 26 55 29 57 70 60 23 2 42 -1 42 -6 0 -5 -16 -45 -35
-89 -19 -45 -35 -90 -35 -101 0 -11 16 -57 35 -102 46 -108 46 -112 -11 -108
-45 3 -46 4 -69 57 -38 91 -68 90 -111 -6 -22 -51 -24 -53 -63 -53 -23 0 -41
4 -41 10 0 5 16 48 35 94 19 47 35 94 35 105 0 10 -16 56 -35 101 -19 45 -35
86 -35 91 0 6 21 9 47 7 47 -3 48 -4 75 -60z"/>
<path d="M2290 255 l0 -45 110 0 110 0 0 45 0 45 -110 0 -110 0 0 -45z m180 0
c0 -12 -15 -15 -75 -15 -60 0 -75 3 -75 15 0 12 15 15 75 15 60 0 75 -3 75
-15z"/>
</g>
</svg>
