<?xml version="1.0" standalone="no"?>
<!DOCTYPE svg PUBLIC "-//W3C//DTD SVG 20010904//EN"
 "http://www.w3.org/TR/2001/REC-SVG-20010904/DTD/svg10.dtd">
<svg version="1.0" xmlns="http://www.w3.org/2000/svg"
 width="300.000000pt" height="51.000000pt" viewBox="0 0 300.000000 51.000000"
 preserveAspectRatio="xMidYMid meet">
<metadata>
Created by potrace 1.10, written by Peter Selinger 2001-2011
</metadata>
<g transform="translate(0.000000,51.000000) scale(0.100000,-0.100000)"
fill="#000000" stroke="none">
<path d="M1082 489 c-99 -19 -141 -73 -150 -189 -9 -137 14 -214 80 -263 33
-25 162 -35 224 -18 53 14 98 61 114 116 19 66 10 221 -16 270 -34 68 -146
105 -252 84z m164 -54 c51 -21 74 -77 74 -184 0 -144 -46 -202 -164 -205 -74
-2 -127 19 -156 62 -23 32 -25 45 -25 141 0 122 13 158 67 184 42 21 156 22
204 2z"/>
<path d="M1075 385 c-24 -23 -25 -30 -25 -138 0 -106 2 -115 23 -135 34 -32
109 -31 142 3 24 23 25 30 25 143 0 142 -6 152 -89 152 -42 0 -57 -5 -76 -25z
m135 -123 c0 -71 -4 -112 -12 -120 -7 -7 -35 -12 -62 -12 l-51 0 2 110 c1 60
4 114 8 120 3 5 31 10 61 10 l54 0 0 -108z"/>
<path d="M20 255 l0 -237 148 4 c168 4 207 16 244 77 21 32 23 49 23 156 0
107 -2 124 -23 156 -37 61 -76 73 -244 77 l-148 4 0 -237z m312 175 c47 -22
62 -56 66 -153 3 -67 0 -98 -13 -133 -25 -67 -54 -78 -200 -79 l-120 0 -3 170
c-1 94 0 181 3 194 6 24 6 24 123 19 64 -3 129 -11 144 -18z"/>
<path d="M150 390 c-18 -18 -20 -33 -20 -135 0 -141 9 -155 93 -155 45 0 58 4
78 26 22 24 24 33 24 129 0 96 -2 105 -24 129 -20 22 -33 26 -78 26 -40 0 -58
-5 -73 -20z m135 -135 l0 -110 -60 -3 -60 -3 0 116 0 116 60 -3 60 -3 0 -110z"/>
<path d="M500 255 l0 -235 73 0 72 0 -3 71 c-4 68 -3 70 18 67 16 -2 29 -20
49 -68 l28 -65 83 -3 82 -3 -41 76 -42 76 29 34 c52 58 52 174 2 238 -29 37
-76 47 -222 47 l-128 0 0 -235z m303 173 c52 -35 58 -135 11 -204 -28 -41 -29
-59 -9 -107 20 -49 19 -57 -9 -57 -19 0 -31 11 -53 52 -35 65 -72 94 -100 79
-23 -11 -41 -51 -45 -96 -2 -25 -8 -30 -28 -30 l-25 0 -3 180 c-1 98 0 186 3
193 8 22 222 13 258 -10z"/>
<path d="M621 384 c-31 -40 -28 -89 9 -126 26 -25 36 -29 63 -24 72 14 102
102 52 151 -35 36 -96 35 -124 -1z m107 -60 c3 -44 -8 -54 -65 -54 -21 0 -23
5 -23 51 l0 50 43 -3 c42 -3 42 -3 45 -44z"/>
<path d="M1415 255 l0 -235 73 0 74 0 -4 105 c-1 58 0 105 5 105 4 0 7 -8 7
-17 0 -9 26 -56 58 -105 l57 -88 70 0 70 0 0 235 0 235 -73 0 -73 0 1 -97 c2
-126 2 -124 -16 -83 -8 19 -36 67 -62 107 l-47 72 -70 1 -70 0 0 -235z m111
187 c7 -4 39 -44 73 -89 33 -46 68 -83 76 -83 22 0 36 35 43 109 7 62 9 66 32
66 l25 0 0 -190 0 -190 -34 0 c-31 0 -39 7 -95 85 -34 47 -69 86 -78 88 -25 5
-42 -35 -48 -108 -5 -61 -6 -65 -30 -65 l-25 0 -3 180 c-1 98 0 185 2 192 6
14 44 17 62 5z"/>
<path d="M1900 255 l0 -235 165 0 165 0 0 60 0 60 -96 0 -95 0 3 27 c3 26 4
26 76 24 l72 -2 0 55 0 56 -75 0 -75 0 0 35 0 35 85 0 85 0 0 29 c0 16 3 43 6
60 l7 31 -162 0 -161 0 0 -235z m256 184 c10 -17 -16 -29 -67 -29 -50 0 -73
-17 -84 -61 -5 -19 0 -34 20 -57 23 -27 34 -32 71 -32 59 0 56 -16 -5 -25 -55
-7 -83 -31 -83 -70 0 -45 28 -65 91 -65 62 0 93 -12 75 -30 -7 -7 -51 -10
-120 -8 l-109 3 -3 180 c-1 98 0 185 2 192 7 17 201 18 212 2z"/>
<path d="M2550 487 c0 -2 23 -54 50 -117 l51 -114 -47 -105 c-25 -58 -49 -112
-51 -118 -4 -10 15 -13 74 -13 l79 0 24 70 c13 38 27 70 31 70 3 0 18 -32 33
-70 l28 -70 79 0 c80 0 88 4 69 38 -5 9 -28 59 -49 110 l-40 93 50 110 c27 61
49 113 49 115 0 2 -35 4 -78 4 l-78 0 -24 -65 c-13 -36 -27 -65 -31 -65 -4 0
-17 29 -30 65 l-23 65 -83 0 c-46 0 -83 -1 -83 -3z m152 -76 c10 -19 29 -46
43 -60 l25 -26 25 26 c14 14 33 41 43 60 12 24 25 35 45 37 35 4 35 -8 -3 -91
-37 -83 -37 -105 0 -192 38 -90 39 -107 3 -103 -21 2 -34 15 -56 54 -51 90
-84 88 -132 -7 -20 -39 -30 -49 -50 -49 -32 0 -32 12 5 98 17 39 30 85 30 102
0 17 -13 60 -30 97 -39 85 -39 95 3 91 25 -2 36 -10 49 -37z"/>
<path d="M2290 255 l0 -45 110 0 110 0 0 45 0 45 -110 0 -110 0 0 -45z"/>
</g>
</svg>
