<?xml version="1.0" standalone="no"?>
<!DOCTYPE svg PUBLIC "-//W3C//DTD SVG 20010904//EN"
 "http://www.w3.org/TR/2001/REC-SVG-20010904/DTD/svg10.dtd">
<svg version="1.0" xmlns="http://www.w3.org/2000/svg"
 width="411.000000pt" height="99.000000pt" viewBox="0 0 411.000000 99.000000"
 preserveAspectRatio="xMidYMid meet">
<metadata>
Created by potrace 1.10, written by Peter Selinger 2001-2011
</metadata>
<g transform="translate(0.000000,99.000000) scale(0.100000,-0.100000)"
fill="#30aaf1" stroke="none">
<path d="M17 820 c-16 -10 -17 -39 -17 -365 0 -331 1 -357 19 -386 10 -17 33
-40 50 -50 31 -18 83 -19 1971 -19 1534 0 1945 3 1963 13 38 21 59 41 68 65 5
12 15 22 24 22 13 0 15 43 15 353 l0 354 -38 12 c-27 9 -49 10 -77 3 -26 -6
-711 -9 -1920 -6 -1034 1 -1886 3 -1892 3 -7 1 -19 0 -25 0 -7 -1 -38 1 -68 5
-33 4 -62 2 -73 -4z m660 -141 c6 -6 22 -17 34 -23 13 -6 29 -22 35 -35 6 -12
17 -28 23 -34 19 -19 13 -125 -10 -172 -31 -61 -84 -92 -176 -100 -41 -4 -89
-3 -106 2 l-32 9 -5 169 c-3 94 -1 176 4 183 11 16 217 17 233 1z m2051 -51
c3 -22 9 -28 27 -28 38 0 55 -11 55 -36 0 -25 -26 -44 -60 -44 -19 0 -21 -5
-18 -62 l3 -63 33 -3 c37 -4 49 -21 33 -50 -12 -23 -58 -34 -101 -25 -42 8
-70 63 -70 137 0 45 -4 60 -24 79 l-24 24 -6 -30 c-5 -25 -9 -28 -28 -22 -59
18 -71 18 -85 0 -16 -23 -17 -87 -1 -103 15 -15 60 -16 75 -1 19 19 43 2 43
-28 0 -49 -12 -57 -88 -57 -56 0 -74 4 -98 23 -38 29 -42 43 -43 122 -1 63 1
67 36 102 35 36 39 37 108 37 51 0 76 -4 84 -14 10 -12 16 -12 42 2 17 10 29
25 29 38 0 29 9 35 45 32 24 -2 31 -8 33 -30z m-1684 -60 c37 -37 55 -112 37
-147 -9 -17 -18 -18 -70 -14 -33 3 -68 3 -78 -1 -37 -15 14 -28 78 -21 58 7
59 7 59 -18 0 -30 -15 -43 -62 -51 -92 -17 -174 27 -187 99 -13 70 -2 113 37
151 32 31 40 34 95 34 53 0 62 -3 91 -32z m304 20 c13 -16 4 -63 -13 -78 -10
-8 -19 -8 -34 -1 -30 17 -59 13 -71 -8 -14 -27 -13 -84 2 -99 15 -15 60 -16
75 -1 19 19 43 2 43 -28 0 -49 -12 -57 -88 -57 -58 0 -74 4 -99 24 -37 30 -43
46 -43 126 0 57 2 63 37 97 35 36 39 37 108 37 46 0 76 -5 83 -12z m285 -21
c94 -79 53 -234 -66 -251 -110 -15 -177 41 -177 147 0 56 3 62 39 98 37 37 42
39 102 39 58 0 68 -4 102 -33z m342 2 c14 -17 25 -38 26 -47 1 -38 -2 -197 -5
-199 -8 -9 -63 -12 -74 -5 -9 6 -15 40 -19 98 -2 49 -9 93 -14 98 -5 6 -18 4
-34 -4 -23 -13 -25 -18 -25 -91 0 -86 -15 -115 -54 -105 -12 3 -26 6 -32 6
-14 0 -27 249 -14 265 6 7 52 12 114 13 l105 1 26 -30z m295 4 c19 -17 35 -44
40 -68 21 -89 11 -100 -78 -97 -39 2 -73 -1 -76 -7 -10 -15 31 -23 85 -16 41
6 50 4 56 -10 24 -65 -137 -85 -207 -26 -58 48 -58 158 -1 216 31 32 39 35 92
35 50 0 63 -4 89 -27z m769 11 c38 -27 49 -69 43 -171 -4 -82 -6 -92 -25 -97
-12 -3 -29 1 -38 10 -14 13 -20 13 -52 -1 -40 -16 -93 -11 -116 13 -8 7 -16
36 -19 63 -4 42 -1 54 18 74 20 21 22 29 12 49 -13 30 -5 63 17 69 43 12 138
6 160 -9z m182 0 c17 -15 19 -15 34 0 20 19 78 21 94 2 8 -9 8 -22 0 -44 -11
-31 -17 -35 -76 -47 -32 -6 -33 -8 -35 -58 -3 -101 -4 -108 -18 -118 -8 -5
-24 -7 -35 -4 -11 2 -25 5 -31 5 -15 0 -27 250 -12 267 15 18 58 16 79 -3z
m369 -11 c19 -17 35 -44 40 -68 21 -89 11 -100 -78 -97 -39 2 -73 -1 -76 -7
-10 -15 31 -23 85 -16 41 6 50 4 56 -10 10 -27 -11 -49 -53 -57 -66 -12 -121
1 -160 37 -32 31 -34 36 -34 102 0 67 1 71 37 106 33 34 41 37 95 37 49 0 62
-4 88 -27z"/>
<path d="M547 603 c-4 -3 -7 -53 -7 -110 l0 -103 29 0 c15 0 43 10 62 23 31
21 34 27 37 81 3 65 -5 80 -56 102 -38 15 -55 17 -65 7z"/>
<path d="M927 513 c-19 -19 -5 -33 33 -33 43 0 47 4 26 26 -15 15 -48 19 -59
7z"/>
<path d="M1494 485 c-12 -30 -12 -40 -2 -63 15 -30 51 -40 74 -22 16 14 19 73
4 101 -6 11 -21 19 -36 19 -19 0 -28 -8 -40 -35z"/>
<path d="M2157 513 c-19 -19 -5 -33 33 -33 41 0 49 7 28 28 -13 13 -50 16 -61
5z"/>
<path d="M2930 520 l-25 -8 28 -1 c15 -1 29 -1 32 -1 9 0 7 14 -2 16 -4 1 -19
-2 -33 -6z"/>
<path d="M2930 425 c-16 -20 -1 -39 26 -33 27 5 32 48 6 48 -11 0 -25 -7 -32
-15z"/>
<path d="M3477 513 c-19 -19 -5 -33 33 -33 41 0 49 7 28 28 -13 13 -50 16 -61
5z"/>
</g>
</svg>
