<?xml version="1.0" standalone="yes"?>
<svg xmlns="http://www.w3.org/2000/svg" width="165" height="95">
<path style="fill:#fefefd; stroke:none;" d="M0 0L0 95L165 95L165 0L0 0z"/>
<path style="fill:#f4a366; stroke:none;" d="M105 22C103.723 23.915 103.723 23.085 105 25C105.713 23.6521 105.805 23.2706 105 22z"/>
<path style="fill:#0a0a0a; stroke:none;" d="M105 23C107.527 24.092 110.302 24.3485 113 25C112.455 26.6352 112.635 26.4549 111 27C112.85 31.6016 116.557 30.9966 121 31C119.579 34.353 117.837 39.088 119.603 42.6821C121.098 45.7227 127.934 45.9699 129.972 43.3966C132.581 40.1019 130.396 34.2946 129 31C131.784 31.0583 134.291 31.3521 137 32C137.992 29.3303 138.007 28.6549 137 26C139.709 25.3521 142.216 25.0583 145 25L145 23C139.303 23.3326 133.698 23.0719 128 23L128 25C130.784 25.0583 133.291 25.3521 136 26C131.379 29.0169 129.868 26.1733 125 26.1119C120.975 26.0611 118.157 27.8767 114 27L115 23C111.602 22.9317 108.34 22.4347 105 23z"/>
<path style="fill:#f4a366; stroke:none;" d="M108.667 22.3333C108.222 22.7778 109.278 22.7222 109.333 22.6667C109.778 22.2222 108.722 22.2778 108.667 22.3333z"/>
<path style="fill:#fd5c51; stroke:none;" d="M113 22L114 23L113 22z"/>
<path style="fill:#f4a366; stroke:none;" d="M114 22L115 23L114 22M118 22C119.248 22.6848 119.548 22.7488 121 23C119.752 22.3152 119.452 22.2512 118 22M129.667 22.3333C129.222 22.7777 130.278 22.7222 130.333 22.6667C130.778 22.2222 129.722 22.2778 129.667 22.3333M136 22L137 23L136 22z"/>
<path style="fill:#fd5c51; stroke:none;" d="M115 23C115.98 24.7833 115.908 24.5943 118 25C116.861 23.9846 116.388 23.6913 115 23z"/>
<path style="fill:#0a0a0a; stroke:none;" d="M116 23C118.269 24.5075 119.326 24.5418 122 24C119.948 23.1257 118.253 23.0472 116 23z"/>
<path style="fill:#f4a366; stroke:none;" d="M122 23L123 24L122 23z"/>
<path style="fill:#fd5c51; stroke:none;" d="M134 23L135 24L134 23z"/>
<path style="fill:#f4a366; stroke:none;" d="M138 23C139.248 23.6848 139.548 23.7488 141 24C139.752 23.3152 139.452 23.2512 138 23M145.333 23.6667C145.278 23.7223 145.222 24.7778 145.667 24.3333C145.722 24.2778 145.778 23.2222 145.333 23.6667z"/>
<path style="fill:#fd5c51; stroke:none;" d="M106 24C108.052 24.8742 109.747 24.9528 112 25C109.948 24.1257 108.253 24.0472 106 24M121 24L122 25L121 24z"/>
<path style="fill:#f4a366; stroke:none;" d="M112.333 25.6667C112.278 25.7222 112.222 26.7778 112.667 26.3333C112.722 26.2778 112.778 25.2222 112.333 25.6667M114 25L115 26L114 25M141 25C142.248 25.6848 142.548 25.7488 144 26C142.752 25.3152 142.452 25.2512 141 25M120.333 26.6667C120.278 26.7222 120.222 27.7778 120.667 27.3333C120.722 27.2778 120.778 26.2222 120.333 26.6667M129 26L130 27L129 26M115 27L116 28L115 27z"/>
<path style="fill:#fd5c51; stroke:none;" d="M129 27L130 28L129 27z"/>
<path style="fill:#f4a366; stroke:none;" d="M134 27L135 28L134 27M138 27L139 28L138 27M46 28C47.2484 28.6848 47.5484 28.7488 49 29C47.7516 28.3152 47.4516 28.2512 46 28z"/>
<path style="fill:#fd5c51; stroke:none;" d="M28 34C33.5562 34.4538 43.9924 35.4269 46.7816 41.0579C48.1937 43.9085 47.076 47.118 46.3742 50C44.9113 56.0077 43.6777 62.0437 42 68C45.6606 68.3203 46.9246 67.5214 48 64C46.5664 65.3926 45.9551 66.2328 45 68C43.9968 61.7664 46.7616 54.0955 48.3789 48.0008C49.0469 45.4834 49.7599 42.5821 52.2276 41.2184C55.7577 39.2675 61.2107 41.6905 65 42C61.3125 39.7477 55.3947 39.8977 53.0278 35.8557C51.6861 33.5646 52.009 30.5447 52 28C45.7741 28.7909 31.8852 28.8964 28 34z"/>
<path style="fill:#f4a366; stroke:none;" d="M52 28C53.6046 32.9784 63.6805 37.2935 63 42C63.5746 44.4819 63.0598 45.6541 62 48C66.3246 46.0812 68.1413 46.5778 70 51C71.064 48.3382 72.4683 43.0337 70.3465 40.588C68.6063 38.5822 65.1547 38.1382 63 36.5679C59.1761 33.7811 56.1388 30.3923 52 28z"/>
<path style="fill:#fd5c51; stroke:none;" d="M130 28C131.506 28.683 132.315 28.8259 134 29C132.494 28.317 131.685 28.1741 130 28z"/>
<path style="fill:#f4a366; stroke:none;" d="M40 29C41.2483 29.6848 41.5484 29.7488 43 30C41.7516 29.3152 41.4516 29.2512 40 29z"/>
<path style="fill:#fd5c51; stroke:none;" d="M111 29L112 30L111 29z"/>
<path style="fill:#f4a366; stroke:none;" d="M138 29L139 30L138 29M35 30C36.2484 30.6848 36.5484 30.7488 38 31C36.7517 30.3152 36.4516 30.2512 35 30M45 30C46.2484 30.6848 46.5484 30.7488 48 31C46.7517 30.3152 46.4516 30.2512 45 30z"/>
<path style="fill:#fefefd; stroke:none;" d="M36 32L36 34C42.5586 34.8832 47.9012 37.4642 51 30C45.9865 30.6369 41.0592 31.7828 36 32z"/>
<path style="fill:#f4a366; stroke:none;" d="M111 30L112 31L111 30M39 31C40.2484 31.6848 40.5484 31.7488 42 32C40.7517 31.3152 40.4516 31.2512 39 31M50.3333 31.6667C50.2778 31.7222 50.2222 32.7778 50.6667 32.3333C50.7222 32.2778 50.7778 31.2222 50.3333 31.6667z"/>
<path style="fill:#fefefd; stroke:none;" d="M52 31C52.4239 38.7155 57.252 39.6072 64 41C60.8656 36.6422 56.9154 33.1908 52 31z"/>
<path style="fill:#f4a366; stroke:none;" d="M112.667 31.3333C112.222 31.7778 113.278 31.7222 113.333 31.6667C113.778 31.2222 112.722 31.2778 112.667 31.3333z"/>
<path style="fill:#fd5c51; stroke:none;" d="M120.333 31.6667C120.278 31.7223 120.222 32.7778 120.667 32.3333C120.722 32.2778 120.778 31.2222 120.333 31.6667z"/>
<path style="fill:#f4a366; stroke:none;" d="M129.333 31.6667C129.278 31.7222 129.222 32.7778 129.667 32.3333C129.722 32.2777 129.778 31.2222 129.333 31.6667M135 31L136 32L135 31M137 31L138 32L137 31M34 32L34 34L36 34L36 32L34 32M119 33L120 34L119 33M130 33L131 34L130 33M29 34C30.1272 41.6323 33.3634 45.82 29 53L35 51C35.3574 54.6667 35.0299 57.4664 34 61L30 56C29.8858 58.2239 31.6112 60.2174 31.2778 62.4252C30.9682 64.4752 29.1534 66.3556 28.0239 68.0039C25.0709 72.3134 22.6692 77.4453 18 80C17.2585 74.4981 15.2456 69.3843 14 64C17.9496 62.4812 21.2221 59.8789 25 58C20.9125 55.0273 13.6443 64.9937 13 60C10.4482 66.2588 15.5887 72.6212 15.7963 79C15.8699 81.2608 14.3945 85.2015 17.3225 86.2716C19.3233 87.0029 21.9328 85.8766 24 85.8387C29.0848 85.7455 35.9964 86.849 40 90C41.2731 84.6561 25.9034 84.168 22 84C26.0249 81.1342 30.5203 78.4534 34.9992 76.3434C36.6114 75.5839 38.7457 74.5744 40.3974 75.8164C42.6213 77.4886 42.5296 82.477 43 85C45.134 79.9145 43.3088 70.0029 52 74C59.1621 70.0169 69.9947 72 78 72C77.3733 69.0639 76.8527 67.9873 74 67L75 70C69.7822 70 64.1847 70.5813 59.0147 69.8565C55.0661 69.3029 52.1287 67.1335 48 67C49.769 67.7789 51.0359 67.9124 53 68L53 70C49.0408 69.9563 45.762 69.1739 42 68C42.9857 66.5215 43 66.7968 43 65C37.345 59.1649 40.1326 48.6615 48 46C47.8905 43.558 47.572 41.3771 47 39C42.6369 41.7171 38.8273 45.1431 34 47C33.5925 42.9337 30.9875 38.6928 33 35C31.4939 34.317 30.6852 34.1741 29 34M38.6667 34.3333C38.2222 34.7778 39.2778 34.7222 39.3333 34.6667C39.7778 34.2222 38.7222 34.2778 38.6667 34.3333M49 34L50 35L49 34z"/>
<path style="fill:#fefefd; stroke:none;" d="M128 34L129 35L128 34M31 35L34 47C39.1552 45.7778 43.5852 42.7553 46 38C40.9881 36.9655 36.1143 35.4177 31 35z"/>
<path style="fill:#f4a366; stroke:none;" d="M35.6667 35.3333C35.2222 35.7778 36.2778 35.7222 36.3333 35.6667C36.7778 35.2222 35.7222 35.2778 35.6667 35.3333M42.6667 35.3333C42.2222 35.7778 43.2778 35.7222 43.3333 35.6667C43.7778 35.2222 42.7222 35.2778 42.6667 35.3333M47 35L48 36L47 35M128 35L129 36L128 35M39.6667 36.3333C39.2222 36.7778 40.2778 36.7222 40.3333 36.6667C40.7778 36.2222 39.7222 36.2778 39.6667 36.3333M52 36L53 37L52 36M43.6667 37.3333C43.2222 37.7778 44.2778 37.7222 44.3333 37.6667C44.7778 37.2222 43.7222 37.2778 43.6667 37.3333M123 37L125 40C126.118 37.8603 125.251 37.4732 123 37z"/>
<path style="fill:#fefefd; stroke:none;" d="M126 37C126.406 39.0924 126.217 39.0197 128 40C127.316 38.42 127.195 38.2228 126 37z"/>
<path style="fill:#f4a366; stroke:none;" d="M114 38L115 39L114 38z"/>
<path style="fill:#fd5c51; stroke:none;" d="M115 38L116 39L115 38z"/>
<path style="fill:#0a0a0a; stroke:none;" d="M110 46C112.98 43.9944 115.994 40.9802 118 38C113.434 39.3686 110.984 41.2367 110 46z"/>
<path style="fill:#fefefd; stroke:none;" d="M122 38L123 39L122 38z"/>
<path style="fill:#0a0a0a; stroke:none;" d="M123 38C123.176 39.8782 123.438 41.1994 124 43C125.949 42.0643 126.55 41.6076 128 40L123 38z"/>
<path style="fill:#f4a366; stroke:none;" d="M131 38C131.684 39.58 131.805 39.7772 133 41C132.309 39.6116 132.015 39.1394 131 38z"/>
<path style="fill:#0a0a0a; stroke:none;" d="M132 38C133.837 41.4661 136.74 44.8027 140 47C138.738 42.1839 136.625 39.8351 132 38z"/>
<path style="fill:#f4a366; stroke:none;" d="M133.667 38.3333C133.222 38.7778 134.278 38.7222 134.333 38.6667C134.778 38.2222 133.722 38.2778 133.667 38.3333z"/>
<path style="fill:#fd5c51; stroke:none;" d="M113 39L114 40L113 39z"/>
<path style="fill:#f4a366; stroke:none;" d="M121 39C121.547 40.875 122.11 42.2553 123 44C123.516 41.5431 122.994 40.498 121 39M128.333 39.6667C128.278 39.7222 128.222 40.7778 128.667 40.3333C128.722 40.2777 128.778 39.2222 128.333 39.6667z"/>
<path style="fill:#fefefd; stroke:none;" d="M48 51C55.9808 51 61.5003 51.2367 65 43C61.4142 41.99 54.8204 38.8932 51.5131 41.6427C49.0204 43.7151 48.615 48.0301 48 51z"/>
<path style="fill:#f4a366; stroke:none;" d="M55.6667 40.3333C55.2222 40.7778 56.2778 40.7222 56.3333 40.6667C56.7778 40.2222 55.7222 40.2778 55.6667 40.3333z"/>
<path style="fill:#fd5c51; stroke:none;" d="M115 40L116 41L115 40z"/>
<path style="fill:#f4a366; stroke:none;" d="M116 40L117 41L116 40M137 40L138 41L137 40M50 41L51 42L50 41M59.6667 41.3333C59.2222 41.7778 60.2778 41.7222 60.3333 41.6667C60.7778 41.2222 59.7222 41.2778 59.6667 41.3333M114 41L115 42L114 41z"/>
<path style="fill:#fefefd; stroke:none;" d="M127.333 41.6667C127.278 41.7223 127.222 42.7778 127.667 42.3333C127.722 42.2778 127.778 41.2222 127.333 41.6667z"/>
<path style="fill:#fd5c51; stroke:none;" d="M128 41L129 42L128 41z"/>
<path style="fill:#f4a366; stroke:none;" d="M110 42L111 43L110 42M126.333 42.6667C126.278 42.7223 126.222 43.7778 126.667 43.3333C126.722 43.2778 126.778 42.2222 126.333 42.6667z"/>
<path style="fill:#fefefd; stroke:none;" d="M44 43C39.7849 46.2631 36.0505 48.2125 37 54C40.1929 51.3628 44.2222 47.3237 44 43z"/>
<path style="fill:#f4a366; stroke:none;" d="M49.3333 43.6667C49.2778 43.7222 49.2222 44.7778 49.6667 44.3333C49.7222 44.2778 49.7778 43.2222 49.3333 43.6667M112 43L113 44L112 43z"/>
<path style="fill:#fefefd; stroke:none;" d="M124.667 43.3333C124.222 43.7778 125.278 43.7222 125.333 43.6667C125.778 43.2222 124.722 43.2778 124.667 43.3333z"/>
<path style="fill:#f4a366; stroke:none;" d="M139 43L140 44L139 43M15 47C16.8475 45.9223 16.9662 46.0509 19 47C18.5279 45.5838 18.1863 45.1863 17 44C15.8048 45.2228 15.6836 45.42 15 47M119 44L120 45L119 44z"/>
<path style="fill:#fd5c51; stroke:none;" d="M137 44L138 45L137 44M139 44L140 45L139 44M16 45C14.4824 50.8659 13.2602 56.9393 13 63C15.3806 58.5302 15.8964 53.0183 16 48C22.3814 52.5477 25.4618 58.7073 33 62C31.4995 59.4435 30.6889 55.8641 28.9414 53.5841C26.4152 50.2882 19.6551 47.11 16 45z"/>
<path style="fill:#fefefd; stroke:none;" d="M46 45C41.9185 51 34.5215 59.2149 43 65C43.8149 58.9487 47.7825 50.8699 46 45z"/>
<path style="fill:#fd5c51; stroke:none;" d="M59 52C60.6615 51.3872 61.4833 50.9573 63 50C62.3005 51.9583 62.0607 52.9495 62 55C64.4685 52.0202 65.9306 48.7116 67 45C63.4391 46.6631 61.2747 48.8049 59 52z"/>
<path style="fill:#f4a366; stroke:none;" d="M121 45C123.613 46.0977 126.165 45.9928 129 46C126.387 44.9023 123.836 45.0072 121 45M137 45L138 46L137 45z"/>
<path style="fill:#fefefd; stroke:none;" d="M67 46L65 51L70 51L69 46L67 46z"/>
<path style="fill:#f4a366; stroke:none;" d="M110.667 46.3333C110.222 46.7777 111.278 46.7222 111.333 46.6667C111.778 46.2222 110.722 46.2778 110.667 46.3333M48.3333 47.6667C48.2778 47.7222 48.2222 48.7778 48.6667 48.3333C48.7222 48.2778 48.7778 47.2222 48.3333 47.6667M66 47L67 48L66 47M16 48L16 51C16.6961 49.4463 16.6961 49.5537 16 48z"/>
<path style="fill:#fefefd; stroke:none;" d="M17 48L14 62C22.0381 58.6162 24.8572 53.7201 17 48z"/>
<path style="fill:#f4a366; stroke:none;" d="M46.3333 48.6667C46.2778 48.7222 46.2222 49.7778 46.6667 49.3333C46.7222 49.2778 46.7778 48.2222 46.3333 48.6667M14 49L14 52C14.6961 50.4463 14.6961 50.5537 14 49M63 49L64 50L63 49M65 49L66 50L65 49M62.3333 50.6667C62.2778 50.7222 62.2222 51.7778 62.6667 51.3333C62.7222 51.2778 62.7778 50.2222 62.3333 50.6667M86 50C87.5061 50.683 88.3148 50.8259 90 51C88.494 50.317 87.6852 50.1741 86 50M25 51C26.2484 51.6848 26.5484 51.7488 28 52C26.7516 51.3152 26.4516 51.2512 25 51z"/>
<path style="fill:#fefefd; stroke:none;" d="M34 61C35.5032 57.3825 35.6712 54.8431 35 51C29.2606 53.1105 29.6508 57.3747 34 61z"/>
<path style="fill:#f4a366; stroke:none;" d="M47.3333 51.6667C47.2778 51.7222 47.2222 52.7778 47.6667 52.3333C47.7222 52.2778 47.7778 51.2222 47.3333 51.6667z"/>
<path style="fill:#0a0a0a; stroke:none;" d="M48 51L48 67C51.444 67 56.5753 67.8796 59.5664 65.821C63.0937 63.3933 63.0937 54.6067 59.5664 52.179C56.5753 50.1204 51.444 51 48 51z"/>
<path style="fill:#fefefd; stroke:none;" d="M61.3333 51.6667C61.2778 51.7222 61.2222 52.7778 61.6667 52.3333C61.7222 52.2778 61.7778 51.2222 61.3333 51.6667z"/>
<path style="fill:#f4a366; stroke:none;" d="M64 51C64 56.8281 61.6101 66.7667 69 68C67.494 67.317 66.6852 67.1741 65 67C65 61.9098 65.9822 55.7238 64 51z"/>
<path style="fill:#0a0a0a; stroke:none;" d="M65 51L65 67L70 67L70 62L74 62L74 67L79 67C78.9589 63.4645 79.0894 61.0019 76 59C78.4294 50.5165 71.4875 51.0007 65 51z"/>
<path style="fill:#f4a366; stroke:none;" d="M75 51L76 52L75 51M83 51L84 52L83 51z"/>
<path style="fill:#0a0a0a; stroke:none;" d="M84.2284 51.7423C76.1825 55.4843 82.0199 70.6844 91.8519 66.3966C99.7701 62.9434 94.2037 47.1029 84.2284 51.7423z"/>
<path style="fill:#fd5c51; stroke:none;" d="M92 51L93 52L92 51z"/>
<path style="fill:#0a0a0a; stroke:none;" d="M98 51L98 67L103 67L103 59C104.826 61.6478 106.202 63.8884 107 67L112 67L112 51L107 51L107 56C104.095 53.3115 101.941 51.6052 98 51z"/>
<path style="fill:#f4a366; stroke:none;" d="M102 51L103 52L102 51z"/>
<path style="fill:#0a0a0a; stroke:none;" d="M115 51L115 67L127 67L127 63L120 63L120 61L125 61L125 57L120 57L120 55L127 55L127 51L115 51M139 51L140.517 58.5756L139 67L144 67L145 62L147 62L148 67L153 67L151.483 58.4244L153 51L148 51L147 56L145 56L144 51L139 51z"/>
<path style="fill:#f4a366; stroke:none;" d="M45.3333 52.6667C45.2778 52.7222 45.2222 53.7778 45.6667 53.3333C45.7222 53.2778 45.7778 52.2222 45.3333 52.6667M94 52L95 53L94 52M103 52L104 53L103 52z"/>
<path style="fill:#fefefd; stroke:none;" d="M47 53C46.1877 57.3116 45.3457 61.6252 45 66C48.4597 62.6119 48.8611 57.4352 47 53M63 53C62.2006 56.3578 62.6872 60.8597 60.973 63.8565C59.4997 66.4321 56.5662 67.4709 55 70L75 70C74.2398 66.1637 73.9518 63.3073 70 62C69.5747 64.6588 66.7849 69.6648 64.6026 64.8326C62.9488 61.1704 64.5771 56.7583 63 53z"/>
<path style="fill:#f4a366; stroke:none;" d="M77 53L77 57C77.7102 55.2405 77.7102 54.7595 77 53M81 53L82 54L81 53M104 53L105 54L104 53M15.3333 54.6667C15.2778 54.7222 15.2222 55.7778 15.6667 55.3333C15.7222 55.2778 15.7778 54.2222 15.3333 54.6667z"/>
<path style="fill:#fd5c51; stroke:none;" d="M144 54L145 55L144 54z"/>
<path style="fill:#f4a366; stroke:none;" d="M147 54L148 55L147 54M13 55L13 58C13.6961 56.4463 13.6961 56.5537 13 55M53 55L53 58C54.1952 56.7772 54.3164 56.58 55 55L53 55z"/>
<path style="fill:#fd5c51; stroke:none;" d="M55 55L53 60C55.0815 58.2052 56.0047 57.5674 55 55z"/>
<path style="fill:#fefefd; stroke:none;" d="M70 55C70.4057 57.0924 70.2167 57.0197 72 58C71.3164 56.42 71.1952 56.2228 70 55z"/>
<path style="fill:#f4a366; stroke:none;" d="M71 55L72 56L71 55z"/>
<path style="fill:#fefefd; stroke:none;" d="M87 55L87 63L90 63C89.9792 60.1505 89.8102 57.729 89 55L87 55z"/>
<path style="fill:#f4a366; stroke:none;" d="M89 55L90 56L89 55M95 55L95 64C96.2561 61.0059 96.2561 57.9941 95 55M120 55C122.332 55.9845 124.457 55.9813 127 56C124.668 55.0155 122.543 55.0187 120 55M139 55L140 56L139 55z"/>
<path style="fill:#fd5c51; stroke:none;" d="M152 55L153 56L152 55z"/>
<path style="fill:#fefefd; stroke:none;" d="M53 56L54 57L53 56z"/>
<path style="fill:#f4a366; stroke:none;" d="M86 56L86 63C87.0595 60.4657 87.0595 58.5343 86 56M44.3333 57.6667C44.2778 57.7222 44.2222 58.7778 44.6667 58.3333C44.7222 58.2778 44.7778 57.2222 44.3333 57.6667M56 57L56 62C56.8299 59.9695 56.8299 59.0305 56 57M125 57L125 61C125.71 59.2405 125.71 58.7595 125 57z"/>
<path style="fill:#0a0a0a; stroke:none;" d="M129 57L129 61L137 61L137 57L129 57z"/>
<path style="fill:#f4a366; stroke:none;" d="M140 57L141 58L140 57M151 57L152 58L151 57z"/>
<path style="fill:#fefefd; stroke:none;" d="M14 64L18 80C23.1143 78.3158 28.6389 70.0267 30.4329 65.0008C31.8847 60.9335 27.8745 57.8123 24 58.4884C20.3912 59.1182 17.1251 62.2219 14 64M55 58C53.9519 59.8559 53.4875 60.9442 53 63C56.0124 62.3545 56.498 60.6128 55 58z"/>
<path style="fill:#fd5c51; stroke:none;" d="M76 58L77 59L76 58z"/>
<path style="fill:#f4a366; stroke:none;" d="M141 58L142 59L141 58z"/>
<path style="fill:#fd5c51; stroke:none;" d="M150 58L151 59L150 58z"/>
<path style="fill:#f4a366; stroke:none;" d="M14.3333 59.6667C14.2778 59.7222 14.2222 60.7778 14.6667 60.3333C14.7222 60.2778 14.7778 59.2222 14.3333 59.6667M78 59L79 60L78 59z"/>
<path style="fill:#fd5c51; stroke:none;" d="M103 59L104 60L103 59z"/>
<path style="fill:#fefefd; stroke:none;" d="M36 60C35.9302 63.57 37.1709 64.8411 40 67L38 60L36 60z"/>
<path style="fill:#f4a366; stroke:none;" d="M45.3333 60.6667C45.2778 60.7222 45.2222 61.7778 45.6667 61.3333C45.7222 61.2778 45.7778 60.2222 45.3333 60.6667M140 60L141 61L140 60z"/>
<path style="fill:#fd5c51; stroke:none;" d="M151 60L152 61L151 60z"/>
<path style="fill:#f4a366; stroke:none;" d="M43.3333 61.6667C43.2778 61.7222 43.2222 62.7778 43.6667 62.3333C43.7222 62.2778 43.7778 61.2222 43.3333 61.6667M129 61C131.613 62.0977 134.165 61.9928 137 62C134.387 60.9023 131.836 61.0072 129 61M152 61L153 62L152 61z"/>
<path style="fill:#fd5c51; stroke:none;" d="M56 62L57 63L56 62M73 62L74 63L73 62M34 63C35.5489 65.1357 36.8643 66.4511 39 68C37.4511 65.8643 36.1357 64.5489 34 63z"/>
<path style="fill:#f4a366; stroke:none;" d="M35 63L36 64L35 63M106 63L107 64L106 63z"/>
<path style="fill:#fefefd; stroke:none;" d="M33 64C29.4742 69.1831 25.2331 74.1102 23 80C31.3439 77.5963 43.9062 71.9453 33 64z"/>
<path style="fill:#f4a366; stroke:none;" d="M34 64L35 65L34 64M36 64L37 65L36 64M44 64L44 68C45.084 66.1375 45.0732 65.8825 44 64M61 64L62 65L61 64z"/>
<path style="fill:#fd5c51; stroke:none;" d="M81 64L82 65L81 64z"/>
<path style="fill:#f4a366; stroke:none;" d="M35 65L36 66L35 65M37 65L38 66L37 65M94 65L95 66L94 65M36 66L37 67L36 66M38 66L39 67L38 66z"/>
<path style="fill:#fd5c51; stroke:none;" d="M59 66L60 67L59 66z"/>
<path style="fill:#f4a366; stroke:none;" d="M82 66L83 67L82 66M93 66L94 67L93 66M37 67L38 68L37 67z"/>
<path style="fill:#fefefd; stroke:none;" d="M45 70L53 70L53 68C49.5838 67.8377 47.5666 67.6637 45 70z"/>
<path style="fill:#fd5c51; stroke:none;" d="M54 67L54 69C55.6352 68.4549 55.4549 68.6352 56 67L54 67z"/>
<path style="fill:#f4a366; stroke:none;" d="M85.6667 67.3333C85.2222 67.7778 86.2778 67.7222 86.3333 67.6667C86.7778 67.2222 85.7222 67.2778 85.6667 67.3333z"/>
<path style="fill:#fd5c51; stroke:none;" d="M87 67C88.2484 67.6848 88.5484 67.7488 90 68C88.7517 67.3152 88.4516 67.2512 87 67z"/>
<path style="fill:#f4a366; stroke:none;" d="M90.6667 67.3333C90.2222 67.7778 91.2778 67.7222 91.3333 67.6667C91.7778 67.2222 90.7222 67.2778 90.6667 67.3333M99 67C100.506 67.683 101.315 67.8259 103 68C101.494 67.317 100.685 67.1741 99 67M107 67C108.769 67.7789 110.036 67.9124 112 68C110.231 67.2211 108.964 67.0876 107 67M116 67C119.432 68.4403 123.3 68 127 68C123.568 66.5597 119.7 67 116 67M140 67C141.506 67.683 142.315 67.8259 144 68C142.494 67.317 141.685 67.1741 140 67M148 67C149.769 67.7789 151.036 67.9124 153 68C151.231 67.2211 149.964 67.0876 148 67z"/>
<path style="fill:#fefefd; stroke:none;" d="M44 85C47.0837 81.2783 49.3497 76.5351 51 72C43.1217 72.601 44 78.5684 44 85z"/>
<path style="fill:#fd5c51; stroke:none;" d="M51 73C49.6617 75.2929 48.5231 77.6854 47.2029 79.9861C46.071 81.9588 44.68 83.435 43.2137 85.1389C41.3759 87.2746 41.3988 93.781 45.4051 90.9136C47.1408 89.6713 46.7893 86.8297 47.2469 84.9992C48.2758 80.8835 51.715 77.2926 51 73z"/>
<path style="fill:#fefefd; stroke:none;" d="M22 83C25.8022 84.8278 37.5912 88.4268 41.3819 85.7315C43.8361 83.9865 42.6231 75.6618 39.6821 74.8164C34.9968 73.4695 25.9357 80.7007 22 83z"/>
<path style="fill:#f4a366; stroke:none;" d="M49 75L50 76L49 75M51 75L52 76L51 75M48 77L49 78L48 77M50 77L51 78L50 77M47 79L48 80L47 79M49 79L50 80L49 79z"/>
<path style="fill:#fefefd; stroke:none;" d="M22 80L23 81L22 80z"/>
<path style="fill:#f4a366; stroke:none;" d="M46 81L47 82L46 81M45 83L46 84L45 83M46 86L47 87L46 86M41 91L42 92L41 91z"/>
</svg>
