<svg id="svg" version="1.1" width="400" height="230.30303030303028" viewBox="0 0 400 230.30303030303028" xmlns="http://www.w3.org/2000/svg" xmlns:xlink="http://www.w3.org/1999/xlink" ><g id="svgg"><path id="path0" d="M257.602 55.614 C 256.007 56.075,255.530 56.401,255.530 57.028 C 255.530 58.327,260.089 59.036,266.594 58.748 C 272.584 58.483,276.769 63.528,272.464 65.824 C 269.906 67.188,269.673 68.454,271.304 72.120 C 272.678 75.207,273.421 75.597,276.498 74.851 C 280.153 73.965,289.751 74.099,291.614 75.063 C 293.253 75.909,293.549 77.916,292.296 79.683 C 288.882 84.501,289.119 83.336,289.083 95.481 C 289.042 109.260,288.564 108.723,301.152 109.036 C 313.803 109.351,314.156 109.279,315.320 106.146 C 316.486 103.008,317.121 86.344,316.131 84.850 C 315.594 84.040,315.068 84.229,314.060 85.592 C 312.153 88.174,309.819 87.893,308.945 84.976 C 308.387 83.114,310.393 81.619,312.623 82.237 C 314.270 82.694,314.393 82.675,314.475 81.958 C 314.523 81.536,314.304 80.931,313.841 80.210 C 313.080 79.024,312.870 77.191,313.384 76.230 C 314.370 74.387,326.546 74.138,329.266 75.906 C 331.653 77.457,333.472 76.132,334.588 72.027 C 335.382 69.106,335.360 69.019,333.299 66.824 C 331.278 64.672,331.257 64.127,333.122 62.171 C 335.156 60.039,334.676 60.137,342.782 60.199 C 351.215 60.264,351.950 60.061,350.757 58.001 C 349.724 56.214,346.271 56.039,340.668 57.489 C 336.344 58.609,335.718 58.610,333.927 57.504 C 331.939 56.277,330.961 56.207,328.790 57.136 C 326.703 58.029,325.751 58.060,323.483 57.307 C 320.522 56.323,315.461 55.925,312.899 56.474 C 311.435 56.788,311.050 57.392,311.615 58.485 C 312.276 59.763,313.518 59.989,320.046 60.021 C 326.573 60.053,326.838 60.109,328.511 61.811 C 330.835 64.176,330.685 64.918,327.390 67.336 C 323.531 70.169,323.733 70.101,319.700 69.923 C 315.595 69.742,314.835 69.452,313.667 67.624 C 311.795 64.694,312.312 64.832,302.472 64.618 C 293.854 64.430,294.402 64.316,293.437 66.491 C 292.425 68.774,291.082 69.223,285.945 69.001 C 281.753 68.819,280.650 68.525,279.057 67.166 C 278.377 66.585,277.525 65.957,277.166 65.771 C 275.071 64.688,275.673 62.132,278.536 59.948 C 280.674 58.318,280.657 58.321,284.101 59.012 C 289.757 60.147,295.161 59.386,295.161 57.454 C 295.161 55.832,288.395 55.513,281.860 56.825 C 280.202 57.158,280.182 57.156,277.772 56.422 L 275.351 55.684 273.513 56.104 C 271.390 56.588,267.190 56.478,263.940 55.852 C 261.338 55.351,258.837 55.257,257.602 55.614 M306.844 89.232 C 311.465 90.490,314.338 97.633,311.777 101.493 C 311.439 102.003,310.990 102.799,310.779 103.262 C 310.569 103.726,310.124 104.296,309.790 104.529 C 309.457 104.763,308.730 105.333,308.174 105.797 C 306.808 106.936,305.807 107.225,303.226 107.225 C 300.647 107.225,299.649 106.938,298.267 105.797 C 297.705 105.333,296.941 104.720,296.569 104.435 C 295.337 103.489,293.666 99.706,293.695 97.926 C 293.752 94.360,297.022 89.750,299.899 89.181 C 300.651 89.033,301.371 88.867,301.498 88.813 C 301.953 88.621,305.670 88.912,306.844 89.232 M300.098 93.184 C 298.335 93.951,297.510 97.895,298.597 100.353 C 300.264 104.120,306.297 104.340,307.573 100.680 C 308.161 98.995,308.027 98.792,305.701 97.827 C 303.879 97.072,303.122 96.279,302.901 94.895 C 302.591 92.949,301.777 92.453,300.098 93.184 M283.065 93.240 C 281.448 93.588,276.952 95.365,276.062 96.007 C 275.478 96.429,274.482 97.081,273.848 97.457 C 272.296 98.377,269.600 102.044,267.965 105.458 C 267.050 107.368,266.965 110.569,267.814 111.109 C 269.148 111.958,270.566 110.687,270.965 108.284 C 271.316 106.170,271.719 105.159,272.567 104.263 C 272.926 103.882,273.377 103.260,273.568 102.880 C 274.045 101.932,276.424 99.704,277.599 99.104 C 278.130 98.833,279.046 98.306,279.634 97.934 C 280.609 97.315,281.412 97.078,283.941 96.662 C 285.099 96.472,285.714 95.831,285.714 94.816 C 285.714 93.435,284.769 92.873,283.065 93.240 M320.869 94.602 C 319.912 95.558,320.654 96.697,322.811 97.582 C 323.635 97.920,324.965 98.468,325.768 98.799 C 329.638 100.396,333.504 105.332,334.773 110.295 C 335.391 112.710,336.597 113.631,337.637 112.482 C 338.312 111.736,337.281 106.131,336.097 104.102 C 332.986 98.777,329.218 95.743,324.435 94.710 C 321.816 94.145,321.341 94.130,320.869 94.602 M168.088 124.206 C 166.947 124.299,164.433 124.386,162.500 124.400 C 157.304 124.436,157.766 122.365,157.874 145.124 L 157.949 161.100 158.596 161.656 C 159.219 162.192,159.372 162.212,162.796 162.212 C 168.649 162.212,168.609 162.254,168.714 155.991 C 168.813 150.089,168.884 150.000,173.522 150.000 C 179.161 150.000,179.651 150.556,179.886 157.213 C 180.069 162.418,180.574 162.937,185.117 162.596 C 191.075 162.150,190.784 162.546,190.782 154.896 C 190.780 147.077,190.151 145.195,186.980 143.529 C 185.300 142.648,185.149 142.188,185.830 140.043 C 187.087 136.084,187.069 130.871,185.788 128.172 C 185.397 127.346,183.114 125.857,181.020 125.061 C 180.046 124.691,171.888 123.870,170.507 124.003 C 170.317 124.021,169.228 124.112,168.088 124.206 M209.060 124.210 C 206.441 124.353,205.596 124.485,204.797 124.878 C 197.946 128.252,197.630 129.117,197.749 144.189 L 197.829 154.263 198.425 155.876 C 200.175 160.613,202.249 161.880,209.393 162.574 C 213.123 162.936,214.014 162.949,217.227 162.686 C 223.983 162.134,225.293 161.655,227.918 158.786 C 229.977 156.533,229.830 157.596,229.908 144.413 C 229.980 132.195,229.883 130.554,229.025 129.493 C 228.769 129.176,228.277 128.535,227.932 128.068 C 227.371 127.311,225.923 126.361,223.009 124.839 C 221.646 124.127,215.596 123.854,209.060 124.210 M117.704 124.685 C 116.769 125.028,116.785 124.753,116.812 140.144 C 116.834 152.618,116.786 154.872,116.461 156.606 C 115.496 161.754,116.040 162.153,124.194 162.286 C 127.770 162.344,130.632 162.499,131.508 162.682 C 132.744 162.942,133.262 162.931,135.194 162.607 C 136.431 162.400,138.461 162.162,139.707 162.077 C 141.381 161.964,142.221 161.791,142.932 161.415 C 148.971 158.216,149.620 156.155,149.495 140.553 L 149.424 131.682 148.009 129.378 C 145.764 125.722,145.446 125.532,140.293 124.781 C 137.439 124.365,118.794 124.286,117.704 124.685 M239.720 124.754 C 238.468 125.299,238.479 125.124,238.479 143.773 L 238.479 160.980 239.073 161.538 C 240.026 162.434,247.516 162.542,248.526 161.674 L 249.194 161.100 249.309 153.408 C 249.412 146.494,249.466 145.651,249.841 145.080 C 250.770 143.663,251.538 143.961,253.687 146.572 C 254.637 147.727,255.881 149.221,256.452 149.893 C 259.891 153.944,259.883 153.926,259.899 157.488 C 259.920 162.178,259.958 162.212,265.226 162.212 C 269.422 162.212,270.370 161.984,270.672 160.902 C 270.994 159.746,270.894 126.477,270.566 125.738 C 270.090 124.666,269.108 124.424,265.230 124.424 C 259.903 124.424,260.098 124.203,259.921 130.426 C 259.703 138.063,258.714 138.209,252.995 131.445 C 250.686 128.713,246.888 124.917,246.206 124.657 C 245.290 124.309,240.581 124.380,239.720 124.754 M280.964 124.754 C 279.712 125.299,279.724 125.131,279.724 143.685 L 279.724 160.804 280.279 161.450 L 280.835 162.097 293.355 162.163 C 307.408 162.238,306.809 162.284,307.302 161.109 C 307.728 160.093,307.629 155.286,307.164 154.417 C 306.698 153.547,305.973 153.456,299.467 153.455 C 291.337 153.453,290.804 153.297,290.609 150.860 C 290.373 147.905,290.929 147.612,297.072 147.465 C 303.095 147.321,303.389 147.030,302.865 141.714 C 302.598 139.002,302.754 139.076,297.042 138.940 C 290.990 138.796,290.263 138.417,290.708 135.635 C 291.067 133.385,291.792 133.192,299.930 133.185 L 306.196 133.180 306.842 132.623 L 307.488 132.066 307.488 128.801 L 307.488 125.536 306.842 124.980 L 306.196 124.424 293.939 124.433 C 284.144 124.440,281.538 124.505,280.964 124.754 M339.246 124.760 C 338.082 125.266,337.903 125.826,337.908 128.930 L 337.913 131.707 339.176 134.334 C 339.870 135.778,340.827 137.412,341.302 137.964 C 341.777 138.516,342.166 139.058,342.166 139.167 C 342.166 139.276,342.526 139.838,342.967 140.415 C 343.407 140.991,343.825 141.699,343.897 141.987 C 344.066 142.675,342.429 146.076,341.254 147.476 C 338.917 150.260,337.802 153.655,337.793 158.014 C 337.784 161.996,338.091 162.209,343.847 162.211 C 348.685 162.212,348.493 162.387,348.679 157.824 C 348.837 153.946,348.880 153.801,350.576 151.508 C 353.195 147.966,354.976 147.872,357.465 151.145 C 359.210 153.439,359.263 153.617,359.395 157.551 C 359.560 162.441,359.148 162.097,364.833 162.097 C 370.182 162.097,370.041 162.160,370.311 159.638 C 370.844 154.648,369.776 150.803,366.865 147.235 C 363.923 143.628,363.969 141.273,367.046 137.903 C 367.393 137.523,368.236 136.175,368.919 134.908 L 370.161 132.604 370.241 129.422 C 370.367 124.408,370.385 124.424,364.749 124.424 C 359.604 124.424,359.664 124.382,359.432 128.134 C 359.230 131.397,358.968 132.384,357.998 133.538 C 357.577 134.038,357.003 134.777,356.723 135.179 C 356.437 135.591,355.851 136.031,355.387 136.184 C 352.108 137.266,349.120 133.593,348.739 128.013 C 348.491 124.369,348.564 124.421,343.732 124.433 C 341.064 124.439,339.765 124.534,339.246 124.760 M216.346 133.313 C 217.524 133.486,218.343 134.319,218.779 135.788 C 219.218 137.265,219.249 149.729,218.818 151.375 C 217.982 154.571,210.454 154.663,208.871 151.498 C 208.101 149.958,208.170 137.240,208.956 135.641 C 210.072 133.375,212.200 132.705,216.346 133.313 M134.032 133.681 C 135.537 134.060,137.870 136.581,138.218 138.206 C 138.558 139.793,138.562 149.118,138.222 150.340 C 137.502 152.936,132.616 154.479,129.389 153.130 C 127.952 152.529,127.622 149.552,128.467 144.808 C 128.807 142.904,128.807 142.562,128.475 140.808 C 127.244 134.323,128.777 132.357,134.032 133.681 M173.963 133.583 C 176.450 134.826,176.603 139.637,174.194 140.841 C 171.718 142.077,169.131 141.022,168.772 138.630 C 168.109 134.209,170.521 131.864,173.963 133.583 M315.556 139.057 C 313.998 139.612,313.699 140.546,313.865 144.338 C 314.023 147.961,314.146 148.018,321.917 148.116 C 328.433 148.198,329.382 148.073,330.469 146.986 L 331.142 146.313 331.066 143.226 C 330.981 139.757,330.820 139.369,329.286 138.943 C 327.939 138.569,316.664 138.663,315.556 139.057 " stroke="none" fill="#000000" fill-rule="evenodd"></path><path id="path1" d="M0.000 115.207 L 0.000 230.415 200.000 230.415 L 400.000 230.415 400.000 115.207 L 400.000 0.000 200.000 0.000 L 0.000 0.000 0.000 115.207 M265.122 54.295 C 269.518 55.450,271.466 55.482,273.463 54.435 C 275.180 53.535,275.390 53.525,276.778 54.263 C 279.329 55.621,282.583 55.709,287.442 54.550 C 290.352 53.856,291.859 53.915,294.163 54.814 C 297.432 56.090,297.906 56.916,296.575 59.015 C 295.378 60.903,295.173 60.945,287.097 60.945 C 279.154 60.945,278.959 60.984,278.045 62.745 C 277.483 63.829,277.724 64.538,278.849 65.110 C 279.267 65.322,280.039 65.844,280.565 66.270 C 281.982 67.418,282.417 67.512,286.317 67.512 C 290.348 67.512,291.002 67.330,291.456 66.082 C 292.669 62.747,292.220 62.867,303.111 62.958 C 313.804 63.048,314.007 63.095,314.862 65.668 C 315.550 67.742,315.830 67.857,320.154 67.857 L 323.912 67.857 325.032 66.924 C 325.648 66.411,326.645 65.707,327.247 65.359 C 327.893 64.986,328.341 64.562,328.341 64.325 C 328.341 63.809,326.352 61.852,325.503 61.534 C 325.128 61.393,322.898 61.289,320.204 61.286 C 311.214 61.278,309.677 60.743,309.677 57.617 C 309.677 55.730,314.093 54.101,317.282 54.812 C 321.239 55.694,327.220 55.923,329.401 55.277 L 331.037 54.792 332.742 55.292 C 333.680 55.566,334.825 55.907,335.288 56.048 C 335.951 56.250,336.800 56.210,339.320 55.859 C 348.579 54.570,352.995 55.540,352.995 58.865 C 352.995 61.447,348.981 62.201,339.603 61.382 C 337.113 61.164,336.411 61.357,334.802 62.701 C 333.092 64.131,332.989 64.706,334.298 65.532 C 337.330 67.446,337.654 69.057,335.871 73.348 C 333.894 78.106,331.741 79.060,327.596 77.015 L 325.922 76.188 321.034 76.170 C 314.002 76.144,313.607 76.749,317.071 82.237 L 317.857 83.483 317.972 87.432 C 318.122 92.569,318.353 93.014,320.528 92.363 C 322.119 91.886,328.495 93.899,330.069 95.375 C 330.449 95.731,331.331 96.385,332.028 96.828 C 335.888 99.280,339.619 106.340,339.628 111.207 C 339.632 113.479,339.317 114.001,337.765 114.291 C 334.920 114.823,333.915 113.856,332.489 109.217 C 330.854 103.896,327.938 100.831,323.386 99.648 C 321.887 99.259,320.796 98.818,320.109 98.325 L 319.080 97.586 318.654 98.111 C 318.196 98.677,318.109 99.190,317.799 103.144 C 317.490 107.075,316.236 108.954,312.996 110.342 L 311.175 111.123 304.032 110.962 C 289.168 110.629,288.125 110.026,287.820 101.590 C 287.650 96.919,287.497 96.458,286.378 97.254 C 286.012 97.516,285.064 97.919,284.273 98.151 C 277.897 100.020,275.947 101.504,272.906 106.797 C 272.615 107.304,272.261 108.445,272.120 109.332 C 271.701 111.967,270.604 113.135,268.552 113.133 C 266.265 113.131,265.212 111.537,265.759 108.909 C 265.948 108.001,266.220 106.576,266.364 105.743 C 266.509 104.910,266.852 103.864,267.127 103.418 C 268.644 100.961,269.084 100.316,269.831 99.452 C 270.284 98.930,270.888 98.164,271.174 97.750 C 271.461 97.336,271.981 96.850,272.330 96.670 C 272.679 96.489,273.376 95.998,273.880 95.579 C 277.246 92.776,283.321 91.033,285.840 92.147 C 287.759 92.996,288.018 92.422,288.018 87.327 C 288.018 85.692,288.127 83.846,288.261 83.225 C 288.496 82.130,288.657 81.848,290.276 79.708 C 290.913 78.865,291.024 78.539,290.967 77.681 C 290.844 75.846,290.668 75.797,283.958 75.740 L 278.188 75.691 276.734 76.440 C 274.546 77.568,273.006 77.261,271.391 75.374 C 268.315 71.781,267.932 66.803,270.599 65.097 C 272.090 64.144,272.301 63.658,271.733 62.496 C 270.955 60.903,270.217 60.718,264.516 60.688 C 256.068 60.643,252.462 59.027,254.032 55.991 C 255.371 53.402,259.382 52.789,265.122 54.295 M126.258 67.992 C 127.273 68.209,127.704 68.510,129.585 70.314 C 130.774 71.453,132.057 72.611,132.435 72.886 C 132.813 73.162,134.294 74.424,135.725 75.691 C 139.114 78.692,140.816 80.198,142.512 81.698 C 143.272 82.370,146.188 84.975,148.992 87.486 C 159.768 97.134,159.923 97.228,163.018 96.006 C 165.202 95.144,166.996 95.531,169.789 97.465 C 172.860 99.593,173.105 105.599,170.247 108.699 L 169.291 109.736 169.435 111.493 C 169.592 113.416,169.916 114.627,170.817 116.654 C 171.143 117.386,171.586 118.810,171.803 119.818 C 172.394 122.571,173.581 123.258,177.765 123.270 C 181.546 123.281,182.979 123.734,185.596 125.744 C 188.330 127.845,189.487 134.031,187.948 138.324 C 186.985 141.012,187.111 141.818,188.654 142.852 C 191.795 144.956,192.051 145.841,192.051 154.608 C 192.051 163.064,192.110 162.886,189.053 163.679 C 186.450 164.355,185.967 166.022,187.341 169.585 C 188.232 171.894,188.206 173.116,187.253 173.825 C 186.602 174.309,186.599 174.309,158.566 174.424 C 126.952 174.554,129.648 174.363,128.548 176.547 C 128.147 177.343,127.527 178.421,127.170 178.942 C 126.813 179.462,126.324 180.405,126.084 181.037 C 125.844 181.669,125.324 182.657,124.928 183.233 C 124.532 183.808,123.989 184.835,123.722 185.515 C 123.454 186.195,122.994 187.068,122.700 187.456 C 122.405 187.843,121.700 189.088,121.133 190.221 C 120.566 191.354,119.660 193.162,119.120 194.240 C 118.581 195.317,117.861 196.613,117.522 197.120 C 117.182 197.627,116.667 198.612,116.377 199.309 C 116.086 200.006,115.601 200.906,115.298 201.309 C 114.995 201.713,114.468 202.698,114.128 203.498 C 113.787 204.299,113.192 205.406,112.804 205.958 C 111.814 207.367,111.885 208.469,113.097 210.478 C 115.316 214.158,114.853 218.849,112.012 221.479 C 110.241 223.118,109.394 223.390,106.106 223.376 C 101.498 223.356,99.713 221.748,97.194 215.344 C 96.445 213.438,95.962 213.150,92.876 212.770 C 91.461 212.596,89.244 212.146,87.951 211.770 C 85.026 210.920,83.757 210.683,80.440 210.368 C 78.915 210.223,76.356 209.744,74.334 209.224 C 72.178 208.671,69.756 208.225,67.972 208.055 C 66.388 207.904,64.366 207.585,63.479 207.347 C 55.246 205.132,52.193 205.106,50.661 207.238 C 48.995 209.557,47.450 210.369,44.700 210.369 C 42.127 210.369,41.764 210.224,39.931 208.465 C 37.511 206.143,36.869 204.628,37.195 202.011 C 37.355 200.733,37.547 200.368,39.280 198.041 C 41.264 195.378,41.242 195.494,40.273 192.667 C 39.809 191.314,39.259 189.326,39.051 188.249 C 38.843 187.172,38.330 185.461,37.911 184.447 C 37.492 183.433,36.923 181.464,36.646 180.072 C 36.370 178.680,35.850 176.865,35.491 176.040 C 35.132 175.214,34.625 173.487,34.366 172.202 C 34.106 170.917,33.536 168.947,33.099 167.824 C 32.661 166.702,32.075 164.697,31.796 163.369 C 31.518 162.041,31.006 160.382,30.659 159.682 C 29.209 156.760,29.131 153.709,30.378 148.618 C 30.765 147.033,31.196 144.700,31.335 143.433 C 31.671 140.353,32.172 137.628,32.839 135.253 C 33.141 134.176,33.501 132.414,33.638 131.336 C 33.775 130.259,33.993 128.548,34.121 127.535 C 34.250 126.521,34.711 124.240,35.146 122.465 C 35.582 120.691,36.096 117.867,36.289 116.189 C 36.832 111.466,37.003 110.868,38.133 109.735 C 40.251 107.611,40.587 107.822,50.115 117.265 C 59.239 126.307,59.013 126.147,61.351 125.206 C 63.530 124.329,64.818 124.355,67.051 125.322 C 68.354 125.886,69.109 126.069,70.120 126.065 C 71.646 126.060,71.973 125.884,75.760 123.033 C 76.356 122.584,77.327 121.937,77.919 121.594 C 79.197 120.853,81.006 118.858,81.353 117.806 C 81.706 116.737,80.683 112.189,79.603 110.023 C 79.160 109.136,78.543 107.453,78.230 106.284 C 77.917 105.114,77.353 103.546,76.975 102.799 C 76.598 102.051,76.064 100.520,75.789 99.395 C 75.513 98.270,74.941 96.660,74.518 95.815 C 74.094 94.971,73.578 93.520,73.371 92.590 C 73.164 91.660,72.648 90.210,72.224 89.368 C 71.801 88.526,71.284 87.183,71.077 86.383 C 70.599 84.537,70.218 83.806,69.485 83.326 C 68.677 82.797,67.958 81.287,67.804 79.802 C 67.637 78.175,68.163 77.552,70.020 77.177 C 70.731 77.033,72.609 76.617,74.194 76.251 C 75.778 75.886,78.785 75.379,80.876 75.124 C 82.967 74.869,86.077 74.307,87.788 73.876 C 89.500 73.444,92.453 72.918,94.355 72.707 C 96.256 72.496,99.315 71.969,101.152 71.535 C 102.990 71.102,106.204 70.547,108.295 70.303 C 110.397 70.057,113.591 69.488,115.438 69.031 C 120.389 67.807,123.846 67.475,126.258 67.992 M116.446 73.392 C 115.544 73.557,114.040 73.901,113.105 74.157 C 110.731 74.806,109.336 75.054,105.767 75.460 C 104.059 75.654,101.156 76.170,99.315 76.606 C 97.474 77.041,94.516 77.561,92.742 77.760 C 86.870 78.420,85.484 78.875,85.484 80.145 C 85.484 81.353,86.428 81.845,89.788 82.386 C 90.988 82.579,93.232 83.137,94.775 83.626 C 96.318 84.116,98.364 84.634,99.321 84.778 C 101.341 85.083,102.681 85.435,105.034 86.278 C 109.446 87.860,112.584 87.820,114.417 86.161 C 115.419 85.253,116.016 84.932,117.593 84.451 C 120.147 83.672,121.429 82.192,121.429 80.023 C 121.429 79.854,121.791 78.592,122.235 77.220 C 123.174 74.315,123.193 74.115,122.581 73.502 C 122.025 72.947,119.161 72.895,116.446 73.392 M127.768 75.437 C 125.792 77.413,125.394 85.123,127.163 87.153 C 127.964 88.072,128.409 88.952,128.793 90.369 C 128.954 90.964,129.255 91.605,129.462 91.792 C 130.148 92.412,135.096 94.017,137.788 94.492 C 139.245 94.749,141.682 95.357,143.203 95.841 C 144.724 96.326,146.808 96.842,147.836 96.987 C 148.863 97.132,150.667 97.508,151.844 97.824 C 154.555 98.549,155.637 98.259,154.399 97.139 C 154.157 96.920,153.840 96.454,153.695 96.103 C 153.550 95.752,151.337 93.568,148.778 91.250 C 142.501 85.566,141.768 84.914,136.982 80.769 C 134.700 78.793,132.246 76.661,131.527 76.030 C 129.961 74.658,128.740 74.465,127.768 75.437 M73.169 83.855 C 72.542 84.551,72.633 85.674,73.455 87.388 C 73.835 88.178,74.419 89.859,74.753 91.123 C 75.088 92.387,75.615 93.852,75.923 94.379 C 76.232 94.906,76.750 96.357,77.074 97.604 C 77.398 98.851,77.972 100.419,78.350 101.088 C 78.728 101.757,79.243 103.188,79.494 104.268 C 79.746 105.347,80.251 106.824,80.618 107.551 C 80.984 108.277,81.555 109.892,81.886 111.140 C 83.170 115.968,85.852 116.690,89.631 113.227 C 90.191 112.714,90.963 112.174,94.816 109.598 C 95.829 108.921,96.807 108.188,96.988 107.970 C 97.169 107.752,97.635 107.411,98.025 107.213 C 98.414 107.016,99.251 106.448,99.885 105.953 C 100.518 105.458,101.555 104.697,102.189 104.262 C 103.517 103.350,106.503 101.270,108.180 100.089 C 112.470 97.067,113.112 93.271,109.503 92.273 C 108.775 92.071,107.143 91.553,105.876 91.121 C 104.608 90.689,102.379 90.129,100.922 89.875 C 99.464 89.622,97.339 89.098,96.198 88.710 C 95.058 88.323,92.945 87.798,91.503 87.543 C 90.061 87.288,88.298 86.867,87.586 86.606 C 85.218 85.739,84.281 85.488,82.124 85.141 C 80.947 84.952,79.174 84.535,78.183 84.214 C 75.501 83.347,73.740 83.220,73.169 83.855 M311.143 83.986 C 310.958 84.468,311.210 85.023,311.613 85.023 C 311.989 85.023,312.321 84.234,312.098 83.873 C 311.882 83.524,311.294 83.593,311.143 83.986 M304.608 90.858 C 303.695 91.174,303.685 91.248,304.262 93.533 C 304.769 95.538,304.953 95.822,306.067 96.328 C 307.852 97.139,310.371 96.751,310.367 95.667 C 310.358 92.740,307.080 90.003,304.608 90.858 M128.341 97.491 C 127.897 97.622,127.120 98.126,126.613 98.611 C 126.106 99.096,125.151 99.762,124.490 100.091 C 122.816 100.926,121.751 101.928,121.330 103.064 C 120.319 105.791,119.355 109.404,119.008 111.762 C 118.794 113.213,118.229 115.645,117.751 117.166 C 116.540 121.019,116.437 121.987,117.158 122.709 L 117.721 123.272 129.079 123.329 C 142.882 123.399,143.598 123.384,144.307 123.000 C 144.804 122.731,146.769 120.629,154.172 112.442 C 155.261 111.238,156.580 109.798,157.104 109.240 C 158.504 107.751,158.646 105.290,157.372 104.608 C 156.011 103.879,151.445 102.471,149.116 102.061 C 147.638 101.801,145.547 101.280,144.470 100.904 C 143.393 100.527,141.319 100.008,139.862 99.750 C 138.404 99.492,136.020 98.878,134.562 98.385 C 131.692 97.415,129.612 97.116,128.341 97.491 M109.506 103.348 C 109.229 103.542,108.572 103.853,108.047 104.039 C 107.521 104.224,106.737 104.687,106.304 105.067 C 105.871 105.447,105.109 105.966,104.610 106.220 C 104.112 106.474,103.143 107.140,102.457 107.698 C 101.771 108.257,100.904 108.872,100.530 109.065 C 100.157 109.259,99.703 109.595,99.522 109.813 C 99.227 110.169,98.500 110.678,94.090 113.612 C 93.409 114.064,92.568 114.700,92.221 115.024 C 91.874 115.348,91.123 115.899,90.553 116.248 C 85.562 119.308,85.051 122.207,88.302 129.032 C 88.875 130.236,89.403 131.397,89.475 131.611 C 90.148 133.611,92.820 131.952,94.951 128.212 C 95.236 127.713,95.701 127.045,95.985 126.728 C 96.270 126.411,96.879 125.530,97.338 124.770 C 97.798 124.009,98.507 122.955,98.914 122.426 C 99.321 121.898,99.942 121.016,100.294 120.468 C 101.047 119.292,102.256 117.534,103.198 116.244 C 103.568 115.737,104.202 114.752,104.606 114.055 C 105.010 113.358,105.626 112.477,105.974 112.097 C 106.323 111.717,106.891 110.939,107.236 110.369 C 107.582 109.798,108.200 108.859,108.609 108.281 C 109.470 107.067,110.927 103.570,110.715 103.227 C 110.511 102.898,110.090 102.940,109.506 103.348 M113.364 107.755 C 112.429 108.060,111.997 108.421,111.515 109.297 C 111.226 109.823,110.617 110.717,110.161 111.283 C 109.705 111.850,109.021 112.797,108.641 113.389 C 106.981 115.971,105.970 117.458,105.289 118.318 C 104.888 118.825,104.129 119.902,103.604 120.711 C 102.116 123.003,100.637 125.206,99.930 126.182 C 98.913 127.586,98.231 128.579,97.261 130.069 C 96.434 131.339,95.960 132.035,93.654 135.369 C 92.062 137.669,91.855 139.489,92.916 141.853 C 93.266 142.631,93.765 144.124,94.026 145.172 C 94.286 146.219,94.807 147.686,95.184 148.432 C 95.560 149.177,96.136 150.794,96.463 152.025 C 96.790 153.256,97.350 154.833,97.708 155.530 C 98.067 156.227,98.582 157.677,98.853 158.752 C 99.664 161.967,100.082 162.396,101.530 161.501 C 102.974 160.608,103.589 159.065,104.240 154.693 C 104.432 153.409,104.950 151.231,105.392 149.854 C 105.834 148.477,106.408 146.054,106.667 144.470 C 106.926 142.886,107.444 140.651,107.817 139.503 C 108.191 138.356,108.756 135.867,109.072 133.973 C 109.389 132.079,109.918 129.818,110.247 128.947 C 110.576 128.077,111.093 125.884,111.395 124.075 C 111.696 122.265,112.303 119.659,112.744 118.284 C 113.618 115.551,114.358 110.975,114.243 109.004 C 114.171 107.758,114.018 107.541,113.364 107.755 M163.346 111.517 C 163.147 111.634,162.789 112.175,162.551 112.720 C 162.314 113.264,161.820 114.157,161.453 114.703 C 161.087 115.250,160.476 116.385,160.094 117.226 C 159.713 118.066,159.154 119.078,158.853 119.474 C 156.406 122.681,157.358 123.406,163.775 123.224 C 169.126 123.072,169.859 122.627,168.780 120.186 C 168.460 119.463,167.947 117.813,167.640 116.520 C 166.597 112.129,165.161 110.455,163.346 111.517 M41.333 117.405 C 40.690 118.385,39.443 123.596,39.055 126.924 C 38.853 128.654,38.282 131.728,37.786 133.756 C 37.290 135.783,36.722 138.894,36.523 140.668 C 36.323 142.442,35.885 145.063,35.549 146.492 C 34.761 149.843,34.884 150.352,36.475 150.331 C 37.237 150.321,37.752 150.164,38.194 149.808 C 38.806 149.315,40.609 148.041,42.972 146.432 C 43.606 146.001,44.695 145.227,45.392 144.712 C 47.130 143.427,50.340 141.132,52.336 139.747 C 55.690 137.417,55.746 137.306,55.755 132.907 C 55.762 129.336,56.178 129.966,49.193 122.980 C 42.526 116.311,42.200 116.081,41.333 117.405 M218.318 122.821 C 220.726 123.080,223.214 123.441,223.848 123.622 C 226.257 124.313,230.035 127.505,230.634 129.358 C 231.924 133.345,231.913 153.211,230.619 157.622 C 228.946 163.324,217.144 166.403,206.567 163.898 C 200.744 162.519,199.238 161.430,196.845 156.862 C 196.122 155.480,195.726 137.816,196.305 132.774 C 196.643 129.841,198.328 126.747,200.169 125.679 C 200.773 125.328,201.526 124.841,201.843 124.597 C 203.115 123.614,204.204 123.379,210.599 122.705 C 212.183 122.538,213.583 122.390,213.710 122.375 C 213.836 122.361,215.910 122.562,218.318 122.821 M79.492 124.097 C 78.796 124.577,77.596 125.390,76.827 125.906 C 76.057 126.421,75.265 127.006,75.066 127.205 C 74.868 127.403,74.409 127.821,74.046 128.132 C 72.821 129.184,72.746 129.393,72.579 132.210 C 72.481 133.870,72.257 135.361,71.996 136.087 C 71.309 137.999,71.757 138.845,75.436 142.591 C 80.252 147.495,81.477 148.072,82.726 146.025 C 83.132 145.360,83.795 144.401,84.199 143.894 C 84.603 143.387,85.202 142.506,85.530 141.935 C 85.859 141.365,86.348 140.698,86.618 140.454 C 88.121 139.094,88.432 134.184,87.197 131.296 C 86.488 129.637,85.607 127.075,85.250 125.637 C 84.626 123.127,81.946 122.410,79.492 124.097 M247.581 123.814 C 248.427 124.209,249.271 124.957,250.761 126.634 C 251.877 127.890,253.316 129.509,253.959 130.233 C 254.602 130.956,255.275 131.758,255.454 132.014 C 255.634 132.271,256.253 132.805,256.830 133.202 C 258.461 134.324,258.567 134.095,258.747 129.102 C 258.960 123.147,258.819 123.272,265.323 123.272 C 272.768 123.272,272.005 120.967,272.005 143.433 C 272.005 165.909,272.729 163.710,265.323 163.710 C 259.254 163.710,258.983 163.503,258.730 158.694 C 258.504 154.426,257.809 153.182,252.810 148.099 C 250.575 145.826,250.602 145.752,250.461 154.534 C 250.307 164.117,250.598 163.710,243.894 163.710 C 239.344 163.710,238.416 163.494,237.598 162.245 C 236.924 161.217,237.016 125.414,237.694 124.498 C 238.706 123.134,245.164 122.687,247.581 123.814 M307.522 123.716 C 308.593 124.368,308.856 125.412,308.864 129.032 C 308.876 134.580,308.787 134.639,300.113 134.795 C 293.059 134.921,292.392 135.050,292.222 136.313 C 292.062 137.505,293.131 137.764,298.272 137.778 C 303.911 137.794,304.493 138.301,304.493 143.203 C 304.493 148.075,303.906 148.607,298.502 148.634 C 292.804 148.662,291.935 148.920,291.935 150.584 C 291.935 152.144,292.081 152.175,299.966 152.304 C 308.674 152.446,308.353 152.313,308.815 155.974 C 309.372 160.382,308.534 163.034,306.403 163.608 C 304.631 164.085,281.142 163.785,280.109 163.272 C 278.338 162.392,278.456 163.812,278.456 143.403 C 278.456 122.839,278.334 124.229,280.206 123.573 C 281.724 123.041,306.629 123.171,307.522 123.716 M348.618 123.675 C 349.606 124.169,349.881 124.915,350.177 127.897 C 350.523 131.394,352.538 134.798,354.256 134.789 C 355.171 134.784,355.285 134.692,356.378 133.065 C 357.952 130.721,358.077 130.353,358.268 127.514 C 358.553 123.262,358.641 123.211,365.459 123.316 L 370.037 123.387 370.635 123.986 C 371.473 124.825,371.747 127.198,371.456 131.086 C 371.223 134.190,371.025 134.839,369.752 136.663 C 369.343 137.249,368.828 138.026,368.606 138.392 C 368.384 138.757,367.778 139.626,367.260 140.323 C 366.047 141.954,366.049 143.702,367.265 145.129 C 368.781 146.908,370.869 150.342,371.207 151.613 C 371.369 152.221,371.495 154.460,371.513 157.028 C 371.558 163.515,371.445 163.642,365.519 163.783 C 358.918 163.940,358.521 163.652,358.261 158.518 C 358.054 154.430,357.779 153.705,355.495 151.210 C 353.254 148.762,350.006 153.496,350.001 159.217 C 349.998 163.030,349.183 163.673,344.203 163.788 C 340.187 163.881,338.525 163.605,337.481 162.671 L 336.751 162.018 336.751 156.868 L 336.751 151.718 338.118 149.419 C 338.871 148.154,339.885 146.631,340.373 146.032 C 342.462 143.471,342.394 141.715,340.097 138.940 C 339.624 138.370,339.107 137.644,338.948 137.327 C 338.788 137.010,338.308 136.233,337.881 135.599 C 335.855 132.596,336.109 124.302,338.249 123.573 C 339.634 123.101,347.625 123.180,348.618 123.675 M149.092 125.214 C 148.714 125.670,148.713 126.864,149.091 127.320 C 149.554 127.878,150.230 126.964,150.230 125.781 C 150.230 124.814,149.659 124.530,149.092 125.214 M154.124 128.916 C 153.680 129.157,153.206 129.974,152.290 132.075 L 151.056 134.908 150.893 144.355 C 150.742 153.154,150.567 155.633,150.024 156.631 C 147.472 161.322,145.337 162.740,139.862 163.383 C 137.347 163.678,136.729 163.908,135.138 165.139 C 133.344 166.528,132.217 169.836,133.146 170.984 L 133.600 171.544 157.912 171.544 L 182.224 171.544 182.875 171.061 C 184.954 169.518,183.866 166.227,180.368 163.484 C 178.769 162.229,178.641 161.850,178.371 157.578 C 178.029 152.156,177.260 151.152,173.443 151.152 C 170.153 151.152,170.084 151.285,170.060 157.673 C 170.039 163.234,169.629 163.638,163.856 163.785 C 159.818 163.888,158.737 163.743,157.827 162.977 C 156.263 161.661,156.348 162.616,156.221 144.980 C 156.121 131.125,156.060 128.986,155.760 128.797 C 155.287 128.498,154.832 128.531,154.124 128.916 M114.667 132.661 C 114.606 132.883,114.430 133.635,114.275 134.332 C 114.120 135.029,113.595 136.592,113.110 137.805 C 112.499 139.329,112.081 140.917,111.756 142.944 C 111.497 144.557,110.927 146.986,110.489 148.342 C 110.052 149.697,109.533 151.877,109.337 153.184 C 108.925 155.934,108.710 156.919,108.071 158.986 C 107.520 160.767,107.484 161.595,107.940 161.974 C 108.617 162.535,112.963 158.303,114.559 155.530 L 115.553 153.802 115.530 143.887 C 115.518 138.433,115.436 133.586,115.347 133.115 C 115.177 132.207,114.851 131.990,114.667 132.661 M170.639 134.924 C 170.218 135.345,170.119 138.676,170.505 139.397 C 170.940 140.211,173.021 140.164,173.552 139.329 C 174.704 137.517,172.054 133.509,170.639 134.924 M211.787 135.144 C 210.204 136.475,210.096 137.067,210.179 143.944 C 210.260 150.649,210.321 150.995,211.591 151.935 C 212.939 152.932,216.925 152.463,217.482 151.241 C 217.899 150.325,217.837 137.309,217.410 136.288 C 216.681 134.543,213.315 133.858,211.787 135.144 M129.941 135.727 C 129.271 136.397,129.381 138.101,130.100 138.204 C 131.210 138.362,132.095 136.013,131.121 135.492 C 130.525 135.173,130.488 135.181,129.941 135.727 M330.098 137.669 C 332.215 138.297,332.362 138.623,332.447 142.909 C 332.585 149.812,332.160 150.115,322.350 150.115 L 316.014 150.115 314.747 149.424 C 312.679 148.296,312.406 147.523,312.490 143.046 C 312.597 137.332,312.562 137.352,322.366 137.337 C 327.534 137.329,329.196 137.401,330.098 137.669 M56.590 140.562 C 56.222 140.672,55.548 141.060,55.092 141.424 C 54.636 141.788,53.641 142.480,52.880 142.963 C 52.120 143.445,51.126 144.163,50.672 144.558 C 50.217 144.953,49.543 145.461,49.174 145.687 C 48.805 145.912,47.569 146.764,46.429 147.580 C 45.288 148.396,43.785 149.443,43.088 149.907 C 42.391 150.371,41.509 151.032,41.129 151.376 C 40.749 151.720,40.023 152.249,39.516 152.552 C 38.239 153.315,35.744 155.129,34.880 155.922 C 33.382 157.298,33.427 159.990,35.015 163.957 C 35.410 164.944,35.929 166.759,36.168 167.990 C 36.406 169.222,36.929 171.043,37.330 172.039 C 37.730 173.034,38.298 175.000,38.592 176.408 C 38.886 177.817,39.446 179.698,39.837 180.589 C 40.228 181.480,40.758 183.299,41.015 184.631 C 41.273 185.963,41.797 187.814,42.180 188.744 C 42.563 189.673,43.035 191.130,43.229 191.981 C 44.291 196.650,48.346 196.714,51.236 192.108 C 52.728 189.730,54.061 187.755,54.853 186.751 C 55.252 186.244,56.009 185.168,56.534 184.359 C 58.248 181.718,59.549 179.790,60.253 178.850 C 60.634 178.342,61.125 177.631,61.345 177.270 C 61.733 176.631,62.983 174.810,64.641 172.465 C 65.877 170.717,66.970 169.117,67.679 168.019 C 68.030 167.474,68.550 166.696,68.834 166.290 C 70.074 164.518,72.086 161.582,73.041 160.149 C 73.612 159.294,74.389 158.174,74.770 157.661 C 75.150 157.148,75.638 156.433,75.856 156.071 C 76.073 155.710,76.467 155.150,76.731 154.825 C 77.364 154.051,77.837 152.642,77.702 151.936 C 77.590 151.353,70.522 144.103,68.251 142.243 L 67.033 141.244 65.026 141.244 C 63.922 141.243,61.952 141.036,60.649 140.783 C 58.080 140.284,57.605 140.258,56.590 140.562 M134.644 141.080 C 133.488 141.733,129.797 146.176,129.474 147.301 C 128.441 150.902,129.336 152.377,132.486 152.267 C 136.139 152.140,136.866 151.000,136.866 145.400 C 136.866 140.824,136.467 140.048,134.644 141.080 M88.311 143.378 C 88.029 143.541,87.425 144.294,86.970 145.052 C 86.515 145.809,85.955 146.636,85.725 146.889 C 84.696 148.025,84.239 149.597,84.544 150.954 C 84.920 152.629,95.299 162.768,96.495 162.629 C 97.854 162.472,97.830 159.671,96.450 157.316 C 96.130 156.770,95.596 155.290,95.262 154.026 C 94.929 152.762,94.363 151.210,94.005 150.576 C 93.647 149.942,93.141 148.588,92.881 147.565 C 92.255 145.105,91.812 144.090,91.185 143.680 C 90.430 143.185,88.920 143.027,88.311 143.378 M78.939 157.085 C 77.526 158.763,76.595 160.081,75.143 162.462 C 74.634 163.296,74.051 164.117,73.847 164.287 C 73.643 164.456,73.202 165.069,72.868 165.650 C 72.534 166.230,71.928 167.120,71.522 167.627 C 71.116 168.134,70.404 169.171,69.940 169.931 C 69.475 170.691,68.534 172.091,67.848 173.041 C 67.163 173.992,66.191 175.392,65.689 176.152 C 65.187 176.912,64.454 178.001,64.060 178.571 C 63.666 179.142,63.012 180.092,62.605 180.683 C 62.199 181.274,61.577 182.156,61.223 182.642 C 60.633 183.453,60.141 184.183,57.834 187.670 C 57.391 188.341,56.738 189.290,56.383 189.779 C 54.618 192.214,53.226 194.585,53.226 195.156 C 53.226 196.578,54.738 196.939,56.452 195.925 C 57.569 195.264,60.878 193.524,63.479 192.229 C 64.366 191.787,65.611 191.091,66.244 190.682 C 66.878 190.273,67.863 189.760,68.433 189.541 C 69.003 189.323,69.915 188.830,70.458 188.446 C 71.001 188.061,72.067 187.503,72.827 187.206 C 73.587 186.908,74.697 186.313,75.295 185.884 C 75.893 185.455,76.877 184.921,77.481 184.697 C 78.085 184.473,79.087 183.941,79.707 183.515 C 80.328 183.088,81.466 182.483,82.236 182.170 C 83.007 181.857,83.971 181.359,84.378 181.065 C 84.786 180.771,85.953 180.104,86.972 179.584 C 87.991 179.064,89.758 178.158,90.899 177.571 C 94.235 175.853,94.934 174.723,94.927 171.056 C 94.923 168.513,95.619 169.444,88.100 161.924 C 80.549 154.371,81.018 154.618,78.939 157.085 M113.349 164.441 C 109.308 168.643,109.138 169.771,112.327 171.228 C 113.434 171.733,124.022 171.880,124.958 171.402 C 127.114 170.303,127.866 169.534,128.569 167.713 C 129.951 164.130,129.522 163.828,123.034 163.826 C 120.120 163.825,118.643 163.727,117.735 163.473 C 114.972 162.702,115.036 162.688,113.349 164.441 M112.386 174.654 C 111.347 174.967,109.978 176.206,109.128 177.604 C 108.688 178.326,108.006 179.107,107.611 179.339 C 106.849 179.787,105.282 181.640,104.679 182.806 C 104.276 183.585,104.412 185.516,105.330 192.051 C 105.580 193.825,105.874 197.157,105.983 199.456 C 106.423 208.650,107.850 207.453,116.189 190.904 C 116.698 189.893,117.455 188.572,117.871 187.967 C 118.287 187.362,118.751 186.478,118.901 186.003 C 119.052 185.527,119.571 184.516,120.055 183.756 C 120.539 182.995,121.116 181.907,121.336 181.336 C 121.557 180.766,122.039 179.855,122.407 179.312 C 123.884 177.130,124.040 175.405,122.819 174.774 C 122.066 174.384,113.604 174.287,112.386 174.654 M93.527 179.468 C 92.945 179.696,92.012 180.193,91.453 180.574 C 90.895 180.954,89.925 181.458,89.299 181.695 C 88.673 181.931,87.663 182.466,87.054 182.885 C 86.446 183.304,85.407 183.859,84.746 184.120 C 84.086 184.380,83.074 184.934,82.498 185.351 C 81.923 185.768,80.945 186.299,80.326 186.531 C 79.707 186.763,78.611 187.334,77.890 187.800 C 77.169 188.266,76.195 188.774,75.725 188.929 C 75.256 189.084,74.336 189.571,73.682 190.011 C 73.029 190.451,71.658 191.232,70.636 191.746 C 69.615 192.261,67.949 193.099,66.935 193.608 C 65.922 194.117,64.663 194.827,64.139 195.186 C 63.615 195.545,62.630 196.057,61.950 196.325 C 61.270 196.592,60.386 197.060,59.985 197.365 C 59.583 197.671,58.485 198.271,57.545 198.700 C 56.169 199.327,55.625 199.737,54.761 200.798 C 52.720 203.303,53.441 203.898,59.259 204.505 C 61.319 204.720,63.460 205.093,64.494 205.416 C 66.631 206.085,69.377 206.593,72.558 206.908 C 73.877 207.038,76.261 207.503,77.858 207.941 C 81.114 208.833,82.444 209.079,85.965 209.439 C 87.307 209.576,89.485 210.003,90.804 210.388 C 95.274 211.690,97.724 211.600,99.465 210.068 C 100.076 209.530,101.003 208.815,101.525 208.479 C 104.677 206.449,104.935 203.884,103.202 191.820 C 103.075 190.933,102.886 188.628,102.781 186.697 C 102.564 182.680,102.505 182.531,100.563 181.096 C 97.819 179.069,95.762 178.593,93.527 179.468 " stroke="none" fill="#ffffff" fill-rule="evenodd"></path><path id="path2" d="M257.102 53.778 C 254.481 54.483,253.113 56.506,254.136 58.161 C 255.290 60.028,257.856 60.652,264.516 60.688 C 270.217 60.718,270.955 60.903,271.733 62.496 C 272.301 63.658,272.090 64.144,270.599 65.097 C 267.932 66.803,268.315 71.781,271.391 75.374 C 273.006 77.261,274.546 77.568,276.734 76.440 L 278.188 75.691 283.958 75.740 C 290.668 75.797,290.844 75.846,290.967 77.681 C 291.024 78.539,290.913 78.865,290.276 79.708 C 288.657 81.848,288.496 82.130,288.261 83.225 C 288.127 83.846,288.018 85.692,288.018 87.327 C 288.018 92.422,287.759 92.996,285.840 92.147 C 283.321 91.033,277.246 92.776,273.880 95.579 C 273.376 95.998,272.679 96.489,272.330 96.670 C 271.981 96.850,271.461 97.336,271.174 97.750 C 270.888 98.164,270.284 98.930,269.831 99.452 C 269.084 100.316,268.644 100.961,267.127 103.418 C 266.852 103.864,266.509 104.910,266.364 105.743 C 266.220 106.576,265.948 108.001,265.759 108.909 C 265.212 111.537,266.265 113.131,268.552 113.133 C 270.604 113.135,271.701 111.967,272.120 109.332 C 272.261 108.445,272.615 107.304,272.906 106.797 C 275.947 101.504,277.897 100.020,284.273 98.151 C 285.064 97.919,286.012 97.516,286.378 97.254 C 287.497 96.458,287.650 96.919,287.820 101.590 C 288.125 110.026,289.168 110.629,304.032 110.962 L 311.175 111.123 312.996 110.342 C 316.236 108.954,317.490 107.075,317.799 103.144 C 318.109 99.190,318.196 98.677,318.654 98.111 L 319.080 97.586 320.109 98.325 C 320.796 98.818,321.887 99.259,323.386 99.648 C 327.938 100.831,330.854 103.896,332.489 109.217 C 333.915 113.856,334.920 114.823,337.765 114.291 C 339.317 114.001,339.632 113.479,339.628 111.207 C 339.619 106.340,335.888 99.280,332.028 96.828 C 331.331 96.385,330.449 95.731,330.069 95.375 C 328.495 93.899,322.119 91.886,320.528 92.363 C 318.353 93.014,318.122 92.569,317.972 87.432 L 317.857 83.483 317.071 82.237 C 314.945 78.868,314.635 77.657,315.645 76.651 C 316.128 76.170,316.318 76.153,321.034 76.170 L 325.922 76.188 327.596 77.015 C 331.741 79.060,333.894 78.106,335.871 73.348 C 337.654 69.057,337.330 67.446,334.298 65.532 C 331.781 63.943,335.512 61.024,339.603 61.382 C 348.981 62.201,352.995 61.447,352.995 58.865 C 352.995 55.540,348.579 54.570,339.320 55.859 C 336.800 56.210,335.951 56.250,335.288 56.048 C 334.825 55.907,333.680 55.566,332.742 55.292 L 331.037 54.792 329.401 55.277 C 327.220 55.923,321.239 55.694,317.282 54.812 C 314.093 54.101,309.677 55.730,309.677 57.617 C 309.677 60.743,311.214 61.278,320.204 61.286 C 322.898 61.289,325.128 61.393,325.503 61.534 C 326.352 61.852,328.341 63.809,328.341 64.325 C 328.341 64.562,327.893 64.986,327.247 65.359 C 326.645 65.707,325.648 66.411,325.032 66.924 L 323.912 67.857 320.154 67.857 C 315.830 67.857,315.550 67.742,314.862 65.668 C 314.007 63.095,313.804 63.048,303.111 62.958 C 292.220 62.867,292.669 62.747,291.456 66.082 C 291.002 67.330,290.348 67.512,286.317 67.512 C 282.417 67.512,281.982 67.418,280.565 66.270 C 280.039 65.844,279.267 65.322,278.849 65.110 C 277.724 64.538,277.483 63.829,278.045 62.745 C 278.959 60.984,279.154 60.945,287.097 60.945 C 295.173 60.945,295.378 60.903,296.575 59.015 C 297.906 56.916,297.432 56.090,294.163 54.814 C 291.859 53.915,290.352 53.856,287.442 54.550 C 282.583 55.709,279.329 55.621,276.778 54.263 C 275.390 53.525,275.180 53.535,273.463 54.435 C 271.466 55.482,269.518 55.450,265.122 54.295 C 261.632 53.379,259.171 53.220,257.102 53.778 M263.940 55.852 C 267.190 56.478,271.390 56.588,273.513 56.104 L 275.351 55.684 277.772 56.422 C 280.182 57.156,280.202 57.158,281.860 56.825 C 288.395 55.513,295.161 55.832,295.161 57.454 C 295.161 59.386,289.757 60.147,284.101 59.012 C 280.657 58.321,280.674 58.318,278.536 59.948 C 275.673 62.132,275.071 64.688,277.166 65.771 C 277.525 65.957,278.377 66.585,279.057 67.166 C 280.650 68.525,281.753 68.819,285.945 69.001 C 291.082 69.223,292.425 68.774,293.437 66.491 C 294.402 64.316,293.854 64.430,302.472 64.618 C 312.312 64.832,311.795 64.694,313.667 67.624 C 314.835 69.452,315.595 69.742,319.700 69.923 C 323.733 70.101,323.531 70.169,327.390 67.336 C 330.685 64.918,330.835 64.176,328.511 61.811 C 326.838 60.109,326.573 60.053,320.046 60.021 C 313.518 59.989,312.276 59.763,311.615 58.485 C 311.050 57.392,311.435 56.788,312.899 56.474 C 315.461 55.925,320.522 56.323,323.483 57.307 C 325.751 58.060,326.703 58.029,328.790 57.136 C 330.961 56.207,331.939 56.277,333.927 57.504 C 335.718 58.610,336.344 58.609,340.668 57.489 C 346.271 56.039,349.724 56.214,350.757 58.001 C 351.950 60.061,351.215 60.264,342.782 60.199 C 334.676 60.137,335.156 60.039,333.122 62.171 C 331.257 64.127,331.278 64.672,333.299 66.824 C 335.360 69.019,335.382 69.106,334.588 72.027 C 333.472 76.132,331.653 77.457,329.266 75.906 C 326.546 74.138,314.370 74.387,313.384 76.230 C 312.870 77.191,313.080 79.024,313.841 80.210 C 314.304 80.931,314.523 81.536,314.475 81.958 C 314.393 82.675,314.270 82.694,312.623 82.237 C 310.393 81.619,308.387 83.114,308.945 84.976 C 309.819 87.893,312.153 88.174,314.060 85.592 C 315.068 84.229,315.594 84.040,316.131 84.850 C 317.121 86.344,316.486 103.008,315.320 106.146 C 314.156 109.279,313.803 109.351,301.152 109.036 C 288.564 108.723,289.042 109.260,289.083 95.481 C 289.119 83.336,288.882 84.501,292.296 79.683 C 293.549 77.916,293.253 75.909,291.614 75.063 C 289.751 74.099,280.153 73.965,276.498 74.851 C 273.421 75.597,272.678 75.207,271.304 72.120 C 269.673 68.454,269.906 67.188,272.464 65.824 C 276.769 63.528,272.584 58.483,266.594 58.748 C 260.089 59.036,255.530 58.327,255.530 57.028 C 255.530 55.499,259.342 54.967,263.940 55.852 M120.392 68.003 C 119.505 68.114,117.275 68.577,115.438 69.031 C 113.591 69.488,110.397 70.057,108.295 70.303 C 106.204 70.547,102.990 71.102,101.152 71.535 C 99.315 71.969,96.256 72.496,94.355 72.707 C 92.453 72.918,89.500 73.444,87.788 73.876 C 86.077 74.307,82.967 74.869,80.876 75.124 C 78.785 75.379,75.778 75.886,74.194 76.251 C 72.609 76.617,70.731 77.033,70.020 77.177 C 68.163 77.552,67.637 78.175,67.804 79.802 C 67.958 81.287,68.677 82.797,69.485 83.326 C 70.218 83.806,70.599 84.537,71.077 86.383 C 71.284 87.183,71.801 88.526,72.224 89.368 C 72.648 90.210,73.164 91.660,73.371 92.590 C 73.578 93.520,74.094 94.971,74.518 95.815 C 74.941 96.660,75.513 98.270,75.789 99.395 C 76.064 100.520,76.598 102.051,76.975 102.799 C 77.353 103.546,77.917 105.114,78.230 106.284 C 78.543 107.453,79.160 109.136,79.603 110.023 C 80.683 112.189,81.706 116.737,81.353 117.806 C 81.006 118.858,79.197 120.853,77.919 121.594 C 77.327 121.937,76.356 122.584,75.760 123.033 C 71.973 125.884,71.646 126.060,70.120 126.065 C 69.109 126.069,68.354 125.886,67.051 125.322 C 64.818 124.355,63.530 124.329,61.351 125.206 C 59.013 126.147,59.239 126.307,50.115 117.265 C 40.587 107.822,40.251 107.611,38.133 109.735 C 37.003 110.868,36.832 111.466,36.289 116.189 C 36.096 117.867,35.582 120.691,35.146 122.465 C 34.711 124.240,34.250 126.521,34.121 127.535 C 33.993 128.548,33.775 130.259,33.638 131.336 C 33.501 132.414,33.141 134.176,32.839 135.253 C 32.172 137.628,31.671 140.353,31.335 143.433 C 31.196 144.700,30.765 147.033,30.378 148.618 C 29.131 153.709,29.209 156.760,30.659 159.682 C 31.006 160.382,31.518 162.041,31.796 163.369 C 32.075 164.697,32.661 166.702,33.099 167.824 C 33.536 168.947,34.106 170.917,34.366 172.202 C 34.625 173.487,35.132 175.214,35.491 176.040 C 35.850 176.865,36.370 178.680,36.646 180.072 C 36.923 181.464,37.492 183.433,37.911 184.447 C 38.330 185.461,38.843 187.172,39.051 188.249 C 39.259 189.326,39.809 191.314,40.273 192.667 C 41.242 195.494,41.264 195.378,39.280 198.041 C 37.547 200.368,37.355 200.733,37.195 202.011 C 36.869 204.628,37.511 206.143,39.931 208.465 C 41.764 210.224,42.127 210.369,44.700 210.369 C 47.450 210.369,48.995 209.557,50.661 207.238 C 52.193 205.106,55.246 205.132,63.479 207.347 C 64.366 207.585,66.388 207.904,67.972 208.055 C 69.756 208.225,72.178 208.671,74.334 209.224 C 76.356 209.744,78.915 210.223,80.440 210.368 C 83.757 210.683,85.026 210.920,87.951 211.770 C 89.244 212.146,91.461 212.596,92.876 212.770 C 95.962 213.150,96.445 213.438,97.194 215.344 C 99.713 221.748,101.498 223.356,106.106 223.376 C 109.394 223.390,110.241 223.118,112.012 221.479 C 114.853 218.849,115.316 214.158,113.097 210.478 C 111.885 208.469,111.814 207.367,112.804 205.958 C 113.192 205.406,113.787 204.299,114.128 203.498 C 114.468 202.698,114.995 201.713,115.298 201.309 C 115.601 200.906,116.086 200.006,116.377 199.309 C 116.667 198.612,117.182 197.627,117.522 197.120 C 117.861 196.613,118.581 195.317,119.120 194.240 C 119.660 193.162,120.566 191.354,121.133 190.221 C 121.700 189.088,122.405 187.843,122.700 187.456 C 122.994 187.068,123.454 186.195,123.722 185.515 C 123.989 184.835,124.532 183.808,124.928 183.233 C 125.324 182.657,125.844 181.669,126.084 181.037 C 126.324 180.405,126.813 179.462,127.170 178.942 C 127.527 178.421,128.147 177.343,128.548 176.547 C 129.648 174.363,126.952 174.554,158.566 174.424 C 186.599 174.309,186.602 174.309,187.253 173.825 C 188.206 173.116,188.232 171.894,187.341 169.585 C 185.967 166.022,186.450 164.355,189.053 163.679 C 192.110 162.886,192.051 163.064,192.051 154.608 C 192.051 145.841,191.795 144.956,188.654 142.852 C 187.111 141.818,186.985 141.012,187.948 138.324 C 189.487 134.031,188.330 127.845,185.596 125.744 C 182.979 123.734,181.546 123.281,177.765 123.270 C 173.581 123.258,172.394 122.571,171.803 119.818 C 171.586 118.810,171.143 117.386,170.817 116.654 C 169.916 114.627,169.592 113.416,169.435 111.493 L 169.291 109.736 170.247 108.699 C 173.105 105.599,172.860 99.593,169.789 97.465 C 166.996 95.531,165.202 95.144,163.018 96.006 C 159.923 97.228,159.768 97.134,148.992 87.486 C 146.188 84.975,143.272 82.370,142.512 81.698 C 140.816 80.198,139.114 78.692,135.725 75.691 C 134.294 74.424,132.813 73.162,132.435 72.886 C 132.057 72.611,130.774 71.453,129.585 70.314 C 126.821 67.664,125.579 67.352,120.392 68.003 M122.581 73.502 C 123.193 74.115,123.174 74.315,122.235 77.220 C 121.791 78.592,121.429 79.854,121.429 80.023 C 121.429 82.192,120.147 83.672,117.593 84.451 C 116.016 84.932,115.419 85.253,114.417 86.161 C 112.584 87.820,109.446 87.860,105.034 86.278 C 102.681 85.435,101.341 85.083,99.321 84.778 C 98.364 84.634,96.318 84.116,94.775 83.626 C 93.232 83.137,90.988 82.579,89.788 82.386 C 86.428 81.845,85.484 81.353,85.484 80.145 C 85.484 78.875,86.870 78.420,92.742 77.760 C 94.516 77.561,97.474 77.041,99.315 76.606 C 101.156 76.170,104.059 75.654,105.767 75.460 C 109.336 75.054,110.731 74.806,113.105 74.157 C 117.435 72.973,121.753 72.675,122.581 73.502 M131.527 76.030 C 132.246 76.661,134.700 78.793,136.982 80.769 C 141.768 84.914,142.501 85.566,148.778 91.250 C 151.337 93.568,153.550 95.752,153.695 96.103 C 153.840 96.454,154.157 96.920,154.399 97.139 C 155.637 98.259,154.555 98.549,151.844 97.824 C 150.667 97.508,148.863 97.132,147.836 96.987 C 146.808 96.842,144.724 96.326,143.203 95.841 C 141.682 95.357,139.245 94.749,137.788 94.492 C 135.096 94.017,130.148 92.412,129.462 91.792 C 129.255 91.605,128.954 90.964,128.793 90.369 C 128.409 88.952,127.964 88.072,127.163 87.153 C 125.684 85.455,125.575 81.797,126.867 77.223 C 127.628 74.530,129.321 74.097,131.527 76.030 M78.183 84.214 C 79.174 84.535,80.947 84.952,82.124 85.141 C 84.281 85.488,85.218 85.739,87.586 86.606 C 88.298 86.867,90.061 87.288,91.503 87.543 C 92.945 87.798,95.058 88.323,96.198 88.710 C 97.339 89.098,99.464 89.622,100.922 89.875 C 102.379 90.129,104.608 90.689,105.876 91.121 C 107.143 91.553,108.775 92.071,109.503 92.273 C 113.112 93.271,112.470 97.067,108.180 100.089 C 106.503 101.270,103.517 103.350,102.189 104.262 C 101.555 104.697,100.518 105.458,99.885 105.953 C 99.251 106.448,98.414 107.016,98.025 107.213 C 97.635 107.411,97.169 107.752,96.988 107.970 C 96.807 108.188,95.829 108.921,94.816 109.598 C 90.963 112.174,90.191 112.714,89.631 113.227 C 85.852 116.690,83.170 115.968,81.886 111.140 C 81.555 109.892,80.984 108.277,80.618 107.551 C 80.251 106.824,79.746 105.347,79.494 104.268 C 79.243 103.188,78.728 101.757,78.350 101.088 C 77.972 100.419,77.398 98.851,77.074 97.604 C 76.750 96.357,76.232 94.906,75.923 94.379 C 75.615 93.852,75.088 92.387,74.753 91.123 C 74.419 89.859,73.835 88.178,73.455 87.388 C 71.653 83.632,73.191 82.600,78.183 84.214 M312.098 83.873 C 312.321 84.234,311.989 85.023,311.613 85.023 C 311.210 85.023,310.958 84.468,311.143 83.986 C 311.294 83.593,311.882 83.524,312.098 83.873 M301.498 88.813 C 301.371 88.867,300.651 89.033,299.899 89.181 C 297.022 89.750,293.752 94.360,293.695 97.926 C 293.666 99.706,295.337 103.489,296.569 104.435 C 296.941 104.720,297.705 105.333,298.267 105.797 C 299.649 106.938,300.647 107.225,303.226 107.225 C 305.807 107.225,306.808 106.936,308.174 105.797 C 308.730 105.333,309.457 104.763,309.790 104.529 C 310.124 104.296,310.569 103.726,310.779 103.262 C 310.990 102.799,311.439 102.003,311.777 101.493 C 314.338 97.633,311.465 90.490,306.844 89.232 C 305.670 88.912,301.953 88.621,301.498 88.813 M307.104 90.878 C 308.689 91.698,310.362 94.153,310.367 95.667 C 310.372 97.204,305.712 97.023,304.872 95.453 C 304.618 94.978,303.915 92.337,303.845 91.594 C 303.766 90.758,305.946 90.279,307.104 90.878 M302.402 93.376 C 302.589 93.661,302.814 94.344,302.901 94.895 C 303.122 96.279,303.879 97.072,305.701 97.827 C 307.634 98.629,307.834 98.778,307.834 99.418 C 307.834 101.394,305.481 103.456,303.226 103.456 C 300.861 103.456,298.547 101.320,298.012 98.641 C 297.381 95.489,300.969 91.186,302.402 93.376 M285.253 93.548 C 286.339 94.634,285.600 96.390,283.941 96.662 C 281.412 97.078,280.609 97.315,279.634 97.934 C 279.046 98.306,278.130 98.833,277.599 99.104 C 276.424 99.704,274.045 101.932,273.568 102.880 C 273.377 103.260,272.926 103.882,272.567 104.263 C 271.719 105.159,271.316 106.170,270.965 108.284 C 270.566 110.687,269.148 111.958,267.814 111.109 C 266.965 110.569,267.050 107.368,267.965 105.458 C 269.600 102.044,272.296 98.377,273.848 97.457 C 274.482 97.081,275.478 96.429,276.062 96.007 C 276.651 95.582,278.341 94.819,279.863 94.290 C 283.826 92.915,284.524 92.819,285.253 93.548 M324.435 94.710 C 329.218 95.743,332.986 98.777,336.097 104.102 C 337.281 106.131,338.312 111.736,337.637 112.482 C 336.597 113.631,335.391 112.710,334.773 110.295 C 333.504 105.332,329.638 100.396,325.768 98.799 C 324.965 98.468,323.635 97.920,322.811 97.582 C 320.654 96.697,319.912 95.558,320.869 94.602 C 321.341 94.130,321.816 94.145,324.435 94.710 M134.562 98.385 C 136.020 98.878,138.404 99.492,139.862 99.750 C 141.319 100.008,143.393 100.527,144.470 100.904 C 145.547 101.280,147.638 101.801,149.116 102.061 C 151.445 102.471,156.011 103.879,157.372 104.608 C 158.646 105.290,158.504 107.751,157.104 109.240 C 156.580 109.798,155.261 111.238,154.172 112.442 C 146.769 120.629,144.804 122.731,144.307 123.000 C 143.598 123.384,142.882 123.399,129.079 123.329 L 117.721 123.272 117.158 122.709 C 116.437 121.987,116.540 121.019,117.751 117.166 C 118.229 115.645,118.794 113.213,119.008 111.762 C 119.355 109.404,120.319 105.791,121.330 103.064 C 121.751 101.928,122.816 100.926,124.490 100.091 C 125.151 99.762,126.106 99.096,126.613 98.611 C 128.324 96.975,130.233 96.921,134.562 98.385 M110.715 103.227 C 110.927 103.570,109.470 107.067,108.609 108.281 C 108.200 108.859,107.582 109.798,107.236 110.369 C 106.891 110.939,106.323 111.717,105.974 112.097 C 105.626 112.477,105.010 113.358,104.606 114.055 C 104.202 114.752,103.568 115.737,103.198 116.244 C 102.256 117.534,101.047 119.292,100.294 120.468 C 99.942 121.016,99.321 121.898,98.914 122.426 C 98.507 122.955,97.798 124.009,97.338 124.770 C 96.879 125.530,96.270 126.411,95.985 126.728 C 95.701 127.045,95.236 127.713,94.951 128.212 C 92.820 131.952,90.148 133.611,89.475 131.611 C 89.403 131.397,88.875 130.236,88.302 129.032 C 85.051 122.207,85.562 119.308,90.553 116.248 C 91.123 115.899,91.874 115.348,92.221 115.024 C 92.568 114.700,93.409 114.064,94.090 113.612 C 98.500 110.678,99.227 110.169,99.522 109.813 C 99.703 109.595,100.157 109.259,100.530 109.065 C 100.904 108.872,101.771 108.257,102.457 107.698 C 103.143 107.140,104.112 106.474,104.610 106.220 C 105.109 105.966,105.871 105.447,106.304 105.067 C 106.737 104.687,107.521 104.224,108.047 104.039 C 108.572 103.853,109.229 103.542,109.506 103.348 C 110.090 102.940,110.511 102.898,110.715 103.227 M114.243 109.004 C 114.358 110.975,113.618 115.551,112.744 118.284 C 112.303 119.659,111.696 122.265,111.395 124.075 C 111.093 125.884,110.576 128.077,110.247 128.947 C 109.918 129.818,109.389 132.079,109.072 133.973 C 108.756 135.867,108.191 138.356,107.817 139.503 C 107.444 140.651,106.926 142.886,106.667 144.470 C 106.408 146.054,105.834 148.477,105.392 149.854 C 104.950 151.231,104.432 153.409,104.240 154.693 C 103.589 159.065,102.974 160.608,101.530 161.501 C 100.082 162.396,99.664 161.967,98.853 158.752 C 98.582 157.677,98.067 156.227,97.708 155.530 C 97.350 154.833,96.790 153.256,96.463 152.025 C 96.136 150.794,95.560 149.177,95.184 148.432 C 94.807 147.686,94.286 146.219,94.026 145.172 C 93.765 144.124,93.266 142.631,92.916 141.853 C 91.855 139.489,92.062 137.669,93.654 135.369 C 95.960 132.035,96.434 131.339,97.261 130.069 C 98.231 128.579,98.913 127.586,99.930 126.182 C 100.637 125.206,102.116 123.003,103.604 120.711 C 104.129 119.902,104.888 118.825,105.289 118.318 C 105.970 117.458,106.981 115.971,108.641 113.389 C 109.021 112.797,109.705 111.850,110.161 111.283 C 110.617 110.717,111.226 109.823,111.515 109.297 C 111.997 108.421,112.429 108.060,113.364 107.755 C 114.018 107.541,114.171 107.758,114.243 109.004 M165.659 111.894 C 166.550 112.643,166.930 113.532,167.640 116.520 C 167.947 117.813,168.460 119.463,168.780 120.186 C 169.859 122.627,169.126 123.072,163.775 123.224 C 157.358 123.406,156.406 122.681,158.853 119.474 C 159.154 119.078,159.713 118.066,160.094 117.226 C 160.476 116.385,161.087 115.250,161.453 114.703 C 161.820 114.157,162.314 113.264,162.551 112.720 C 163.242 111.137,164.395 110.830,165.659 111.894 M49.193 122.980 C 56.178 129.966,55.762 129.336,55.755 132.907 C 55.746 137.306,55.690 137.417,52.336 139.747 C 50.340 141.132,47.130 143.427,45.392 144.712 C 44.695 145.227,43.606 146.001,42.972 146.432 C 40.609 148.041,38.806 149.315,38.194 149.808 C 37.752 150.164,37.237 150.321,36.475 150.331 C 34.884 150.352,34.761 149.843,35.549 146.492 C 35.885 145.063,36.323 142.442,36.523 140.668 C 36.722 138.894,37.290 135.783,37.786 133.756 C 38.282 131.728,38.853 128.654,39.055 126.924 C 39.257 125.195,39.766 122.477,40.186 120.885 C 41.674 115.243,41.392 115.177,49.193 122.980 M210.599 122.705 C 204.204 123.379,203.115 123.614,201.843 124.597 C 201.526 124.841,200.773 125.328,200.169 125.679 C 198.328 126.747,196.643 129.841,196.305 132.774 C 195.726 137.816,196.122 155.480,196.845 156.862 C 199.238 161.430,200.744 162.519,206.567 163.898 C 212.676 165.345,217.696 165.126,224.241 163.126 C 227.060 162.265,230.001 159.727,230.619 157.622 C 231.913 153.211,231.924 133.345,230.634 129.358 C 230.035 127.505,226.257 124.313,223.848 123.622 C 222.867 123.342,214.389 122.299,213.710 122.375 C 213.583 122.390,212.183 122.538,210.599 122.705 M84.467 124.034 C 84.764 124.379,85.116 125.101,85.250 125.637 C 85.607 127.075,86.488 129.637,87.197 131.296 C 88.432 134.184,88.121 139.094,86.618 140.454 C 86.348 140.698,85.859 141.365,85.530 141.935 C 85.202 142.506,84.603 143.387,84.199 143.894 C 83.795 144.401,83.132 145.360,82.726 146.025 C 81.477 148.072,80.252 147.495,75.436 142.591 C 71.757 138.845,71.309 137.999,71.996 136.087 C 72.257 135.361,72.481 133.870,72.579 132.210 C 72.746 129.393,72.821 129.184,74.046 128.132 C 74.409 127.821,74.868 127.403,75.066 127.205 C 75.265 127.006,76.057 126.421,76.827 125.906 C 77.596 125.390,78.796 124.577,79.492 124.097 C 81.145 122.961,83.518 122.930,84.467 124.034 M238.962 123.573 C 237.089 124.229,237.212 122.839,237.212 143.402 C 237.212 163.812,237.094 162.392,238.865 163.272 C 239.633 163.653,240.283 163.710,243.894 163.710 C 250.598 163.710,250.307 164.117,250.461 154.534 C 250.602 145.752,250.575 145.826,252.810 148.099 C 257.809 153.182,258.504 154.426,258.730 158.694 C 258.983 163.503,259.254 163.710,265.323 163.710 C 272.729 163.710,272.005 165.909,272.005 143.433 C 272.005 120.967,272.768 123.272,265.323 123.272 C 258.819 123.272,258.960 123.147,258.747 129.102 C 258.567 134.095,258.461 134.324,256.830 133.202 C 256.253 132.805,255.634 132.271,255.454 132.014 C 255.275 131.758,254.602 130.956,253.959 130.233 C 247.421 122.874,248.043 123.271,243.088 123.287 C 241.120 123.293,239.424 123.411,238.962 123.573 M280.206 123.573 C 278.334 124.229,278.456 122.839,278.456 143.403 C 278.456 163.812,278.338 162.392,280.109 163.272 C 281.142 163.785,304.631 164.085,306.403 163.608 C 308.534 163.034,309.372 160.382,308.815 155.974 C 308.353 152.313,308.674 152.446,299.966 152.304 C 292.081 152.175,291.935 152.144,291.935 150.584 C 291.935 148.920,292.804 148.662,298.502 148.634 C 303.906 148.607,304.493 148.075,304.493 143.203 C 304.493 138.301,303.911 137.794,298.272 137.778 C 293.131 137.764,292.062 137.505,292.222 136.313 C 292.392 135.050,293.059 134.921,300.113 134.795 C 308.787 134.639,308.876 134.580,308.864 129.032 C 308.856 125.412,308.593 124.368,307.522 123.716 C 306.629 123.171,281.724 123.041,280.206 123.573 M338.249 123.573 C 336.109 124.302,335.855 132.596,337.881 135.599 C 338.308 136.233,338.788 137.010,338.948 137.327 C 339.107 137.644,339.624 138.370,340.097 138.940 C 342.394 141.715,342.462 143.471,340.373 146.032 C 339.885 146.631,338.871 148.154,338.118 149.419 L 336.751 151.718 336.751 156.868 L 336.751 162.018 337.481 162.671 C 338.525 163.605,340.187 163.881,344.203 163.788 C 349.183 163.673,349.998 163.030,350.001 159.217 C 350.006 153.496,353.254 148.762,355.495 151.210 C 357.779 153.705,358.054 154.430,358.261 158.518 C 358.521 163.652,358.918 163.940,365.519 163.783 C 371.445 163.642,371.558 163.515,371.513 157.028 C 371.495 154.460,371.369 152.221,371.207 151.613 C 370.869 150.342,368.781 146.908,367.265 145.129 C 366.049 143.702,366.047 141.954,367.260 140.323 C 367.778 139.626,368.384 138.757,368.606 138.392 C 368.828 138.026,369.343 137.249,369.752 136.663 C 371.025 134.839,371.223 134.190,371.456 131.086 C 371.747 127.198,371.473 124.825,370.635 123.986 L 370.037 123.387 365.459 123.316 C 358.641 123.211,358.553 123.262,358.268 127.514 C 358.077 130.353,357.952 130.721,356.378 133.065 C 355.285 134.692,355.171 134.784,354.256 134.789 C 352.538 134.798,350.523 131.394,350.177 127.897 C 349.725 123.333,349.629 123.267,343.433 123.285 C 340.679 123.293,338.756 123.400,338.249 123.573 M175.375 124.302 C 180.344 124.667,181.042 124.845,183.784 126.447 C 186.927 128.283,187.775 133.918,185.830 140.043 C 185.149 142.188,185.300 142.648,186.980 143.529 C 190.151 145.195,190.780 147.077,190.782 154.896 C 190.784 162.546,191.075 162.150,185.117 162.596 C 180.574 162.937,180.069 162.418,179.886 157.213 C 179.651 150.556,179.161 150.000,173.522 150.000 C 168.884 150.000,168.813 150.089,168.714 155.991 C 168.609 162.254,168.649 162.212,162.796 162.212 C 159.372 162.212,159.219 162.192,158.596 161.656 L 157.949 161.100 157.874 145.124 C 157.766 122.365,157.304 124.436,162.500 124.400 C 165.395 124.379,167.863 124.257,170.507 124.003 C 170.697 123.985,172.887 124.119,175.375 124.302 M218.401 124.190 C 221.363 124.356,222.350 124.495,223.009 124.839 C 225.923 126.361,227.371 127.311,227.932 128.068 C 228.277 128.535,228.769 129.176,229.025 129.493 C 229.883 130.554,229.980 132.195,229.908 144.413 C 229.830 157.596,229.977 156.533,227.918 158.786 C 225.293 161.655,223.983 162.134,217.227 162.686 C 210.280 163.254,204.785 162.442,201.660 160.386 C 199.712 159.104,199.517 158.832,198.425 155.876 L 197.829 154.263 197.749 144.189 C 197.630 129.117,197.946 128.252,204.797 124.878 C 205.596 124.485,206.441 124.353,209.060 124.210 C 213.707 123.957,214.203 123.956,218.401 124.190 M140.293 124.781 C 145.446 125.532,145.764 125.722,148.009 129.378 L 149.424 131.682 149.495 140.553 C 149.620 156.155,148.971 158.216,142.932 161.415 C 142.221 161.791,141.381 161.964,139.707 162.077 C 138.461 162.162,136.431 162.400,135.194 162.607 C 133.262 162.931,132.744 162.942,131.508 162.682 C 130.632 162.499,127.770 162.344,124.194 162.286 C 116.040 162.153,115.496 161.754,116.461 156.606 C 116.786 154.872,116.834 152.618,116.812 140.144 C 116.785 124.753,116.769 125.028,117.704 124.685 C 118.794 124.286,137.439 124.365,140.293 124.781 M246.206 124.657 C 246.888 124.917,250.686 128.713,252.995 131.445 C 258.714 138.209,259.703 138.063,259.921 130.426 C 260.098 124.203,259.903 124.424,265.230 124.424 C 269.108 124.424,270.090 124.666,270.566 125.738 C 270.894 126.477,270.994 159.746,270.672 160.902 C 270.370 161.984,269.422 162.212,265.226 162.212 C 259.958 162.212,259.920 162.178,259.899 157.488 C 259.883 153.926,259.891 153.944,256.452 149.893 C 255.881 149.221,254.637 147.727,253.687 146.572 C 251.538 143.961,250.770 143.663,249.841 145.080 C 249.466 145.651,249.412 146.494,249.309 153.408 L 249.194 161.100 248.526 161.674 C 247.516 162.542,240.026 162.434,239.073 161.538 L 238.479 160.980 238.479 143.773 C 238.479 125.124,238.468 125.299,239.720 124.754 C 240.581 124.380,245.290 124.309,246.206 124.657 M306.842 124.980 L 307.488 125.536 307.488 128.801 L 307.488 132.066 306.842 132.623 L 306.196 133.180 299.930 133.185 C 291.792 133.192,291.067 133.385,290.708 135.635 C 290.263 138.417,290.990 138.796,297.042 138.940 C 302.754 139.076,302.598 139.002,302.865 141.714 C 303.389 147.030,303.095 147.321,297.072 147.465 C 290.929 147.612,290.373 147.905,290.609 150.860 C 290.804 153.297,291.337 153.453,299.467 153.455 C 305.973 153.456,306.698 153.547,307.164 154.417 C 307.629 155.286,307.728 160.093,307.302 161.109 C 306.809 162.284,307.408 162.238,293.355 162.163 L 280.835 162.097 280.279 161.450 L 279.724 160.804 279.724 143.685 C 279.724 131.515,279.799 126.350,279.985 125.817 C 280.466 124.438,280.413 124.443,293.939 124.433 L 306.196 124.424 306.842 124.980 M348.027 124.965 C 348.501 125.439,348.590 125.816,348.739 128.013 C 348.966 131.337,350.634 135.051,352.300 135.943 C 353.769 136.728,355.901 136.360,356.723 135.179 C 357.003 134.777,357.577 134.038,357.998 133.538 C 358.968 132.384,359.230 131.397,359.432 128.134 C 359.664 124.382,359.604 124.424,364.749 124.424 C 370.385 124.424,370.367 124.408,370.241 129.422 L 370.161 132.604 368.919 134.908 C 368.236 136.175,367.393 137.523,367.046 137.903 C 363.969 141.273,363.923 143.628,366.865 147.235 C 369.776 150.803,370.844 154.648,370.311 159.638 C 370.041 162.160,370.182 162.097,364.833 162.097 C 359.148 162.097,359.560 162.441,359.395 157.551 C 359.263 153.617,359.210 153.439,357.465 151.145 C 354.976 147.872,353.195 147.966,350.576 151.508 C 348.880 153.801,348.837 153.946,348.679 157.824 C 348.493 162.387,348.685 162.212,343.847 162.211 C 338.091 162.209,337.784 161.996,337.793 158.014 C 337.802 153.655,338.917 150.260,341.254 147.476 C 342.429 146.076,344.066 142.675,343.897 141.987 C 343.825 141.699,343.407 140.991,342.967 140.415 C 342.526 139.838,342.166 139.276,342.166 139.167 C 342.166 139.058,341.777 138.516,341.302 137.964 C 340.827 137.412,339.870 135.778,339.176 134.334 L 337.913 131.707 337.908 128.930 C 337.900 124.588,338.084 124.447,343.732 124.433 C 347.370 124.424,347.503 124.441,348.027 124.965 M150.230 125.781 C 150.230 126.964,149.554 127.878,149.091 127.320 C 148.422 126.514,148.895 124.885,149.798 124.885 C 150.147 124.885,150.230 125.058,150.230 125.781 M155.760 128.797 C 156.060 128.986,156.121 131.125,156.221 144.980 C 156.348 162.616,156.263 161.661,157.827 162.977 C 158.737 163.743,159.818 163.888,163.856 163.785 C 169.629 163.638,170.039 163.234,170.060 157.673 C 170.084 151.285,170.153 151.152,173.443 151.152 C 177.260 151.152,178.029 152.156,178.371 157.578 C 178.641 161.850,178.769 162.229,180.368 163.484 C 183.866 166.227,184.954 169.518,182.875 171.061 L 182.224 171.544 157.912 171.544 L 133.600 171.544 133.146 170.984 C 132.217 169.836,133.344 166.528,135.138 165.139 C 136.729 163.908,137.347 163.678,139.862 163.383 C 145.337 162.740,147.472 161.322,150.024 156.631 C 150.567 155.633,150.742 153.154,150.893 144.355 L 151.056 134.908 152.290 132.075 C 153.698 128.843,154.554 128.035,155.760 128.797 M115.347 133.115 C 115.436 133.586,115.518 138.433,115.530 143.887 L 115.553 153.802 114.559 155.530 C 112.963 158.303,108.617 162.535,107.940 161.974 C 107.484 161.595,107.520 160.767,108.071 158.986 C 108.710 156.919,108.925 155.934,109.337 153.184 C 109.533 151.877,110.052 149.697,110.489 148.342 C 110.927 146.986,111.497 144.557,111.756 142.944 C 112.081 140.917,112.499 139.329,113.110 137.805 C 113.595 136.592,114.120 135.029,114.275 134.332 C 114.693 132.450,114.758 132.258,114.982 132.258 C 115.094 132.258,115.259 132.644,115.347 133.115 M212.490 133.180 C 210.845 133.426,209.631 134.272,208.956 135.641 C 208.170 137.240,208.101 149.958,208.871 151.498 C 210.454 154.663,217.982 154.571,218.818 151.375 C 219.249 149.729,219.218 137.265,218.779 135.788 C 218.105 133.517,216.019 132.652,212.490 133.180 M130.415 133.342 C 128.228 133.672,127.588 136.135,128.475 140.808 C 128.807 142.562,128.807 142.904,128.467 144.808 C 127.622 149.552,127.952 152.529,129.389 153.130 C 132.616 154.479,137.502 152.936,138.222 150.340 C 138.562 149.118,138.558 139.793,138.218 138.206 C 137.574 135.203,133.775 132.835,130.415 133.342 M169.590 133.831 C 167.979 135.442,168.484 140.354,170.326 140.997 C 174.256 142.367,177.308 138.926,175.421 135.253 C 174.316 133.104,171.101 132.320,169.590 133.831 M172.324 134.938 C 173.976 136.096,174.225 139.280,172.709 139.857 C 170.964 140.520,170.276 139.748,170.276 137.128 C 170.276 134.686,170.944 133.972,172.324 134.938 M216.316 135.029 C 217.666 135.852,217.742 136.326,217.742 143.876 C 217.742 152.478,217.772 152.409,214.011 152.412 C 210.484 152.415,210.276 151.953,210.179 143.944 C 210.096 137.067,210.204 136.475,211.787 135.144 C 212.707 134.369,215.133 134.308,216.316 135.029 M131.121 135.492 C 132.095 136.013,131.210 138.362,130.100 138.204 C 129.381 138.101,129.271 136.397,129.941 135.727 C 130.488 135.181,130.525 135.173,131.121 135.492 M314.650 137.741 C 312.739 138.404,312.569 138.820,312.490 143.046 C 312.406 147.523,312.679 148.296,314.747 149.424 L 316.014 150.115 322.350 150.115 C 332.160 150.115,332.585 149.812,332.447 142.909 C 332.335 137.296,332.382 137.322,322.366 137.337 C 316.776 137.346,315.613 137.407,314.650 137.741 M329.286 138.943 C 330.820 139.369,330.981 139.757,331.066 143.226 L 331.142 146.313 330.469 146.986 C 329.382 148.073,328.433 148.198,321.917 148.116 C 314.146 148.018,314.023 147.961,313.865 144.338 C 313.699 140.546,313.998 139.612,315.556 139.057 C 316.664 138.663,327.939 138.569,329.286 138.943 M60.649 140.783 C 61.952 141.036,63.922 141.243,65.026 141.244 L 67.033 141.244 68.251 142.243 C 70.522 144.103,77.590 151.353,77.702 151.936 C 77.837 152.642,77.364 154.051,76.731 154.825 C 76.467 155.150,76.073 155.710,75.856 156.071 C 75.638 156.433,75.150 157.148,74.770 157.661 C 74.389 158.174,73.612 159.294,73.041 160.149 C 72.086 161.582,70.074 164.518,68.834 166.290 C 68.550 166.696,68.030 167.474,67.679 168.019 C 66.970 169.117,65.877 170.717,64.641 172.465 C 62.983 174.810,61.733 176.631,61.345 177.270 C 61.125 177.631,60.634 178.342,60.253 178.850 C 59.549 179.790,58.248 181.718,56.534 184.359 C 56.009 185.168,55.252 186.244,54.853 186.751 C 54.061 187.755,52.728 189.730,51.236 192.108 C 48.346 196.714,44.291 196.650,43.229 191.981 C 43.035 191.130,42.563 189.673,42.180 188.744 C 41.797 187.814,41.273 185.963,41.015 184.631 C 40.758 183.299,40.228 181.480,39.837 180.589 C 39.446 179.698,38.886 177.817,38.592 176.408 C 38.298 175.000,37.730 173.034,37.330 172.039 C 36.929 171.043,36.406 169.222,36.168 167.990 C 35.929 166.759,35.410 164.944,35.015 163.957 C 33.427 159.990,33.382 157.298,34.880 155.922 C 35.744 155.129,38.239 153.315,39.516 152.552 C 40.023 152.249,40.749 151.720,41.129 151.376 C 41.509 151.032,42.391 150.371,43.088 149.907 C 43.785 149.443,45.288 148.396,46.429 147.580 C 47.569 146.764,48.805 145.912,49.174 145.687 C 49.543 145.461,50.217 144.953,50.672 144.558 C 51.126 144.163,52.120 143.445,52.880 142.963 C 53.641 142.480,54.636 141.788,55.092 141.424 C 56.591 140.228,57.343 140.141,60.649 140.783 M136.642 141.374 C 137.566 143.805,136.679 150.468,135.263 151.728 C 134.453 152.450,130.429 152.549,129.744 151.864 C 128.731 150.851,129.134 147.274,130.453 145.575 C 133.801 141.264,136.026 139.754,136.642 141.374 M91.185 143.680 C 91.812 144.090,92.255 145.105,92.881 147.565 C 93.141 148.588,93.647 149.942,94.005 150.576 C 94.363 151.210,94.929 152.762,95.262 154.026 C 95.596 155.290,96.130 156.770,96.450 157.316 C 97.830 159.671,97.854 162.472,96.495 162.629 C 95.299 162.768,84.920 152.629,84.544 150.954 C 84.239 149.597,84.696 148.025,85.725 146.889 C 85.955 146.636,86.515 145.809,86.970 145.052 C 88.166 143.061,89.551 142.610,91.185 143.680 M88.100 161.924 C 95.619 169.444,94.923 168.513,94.927 171.056 C 94.934 174.723,94.235 175.853,90.899 177.571 C 89.758 178.158,87.991 179.064,86.972 179.584 C 85.953 180.104,84.786 180.771,84.378 181.065 C 83.971 181.359,83.007 181.857,82.236 182.170 C 81.466 182.483,80.328 183.088,79.707 183.515 C 79.087 183.941,78.085 184.473,77.481 184.697 C 76.877 184.921,75.893 185.455,75.295 185.884 C 74.697 186.313,73.587 186.908,72.827 187.206 C 72.067 187.503,71.001 188.061,70.458 188.446 C 69.915 188.830,69.003 189.323,68.433 189.541 C 67.863 189.760,66.878 190.273,66.244 190.682 C 65.611 191.091,64.366 191.787,63.479 192.229 C 60.878 193.524,57.569 195.264,56.452 195.925 C 54.738 196.939,53.226 196.578,53.226 195.156 C 53.226 194.585,54.618 192.214,56.383 189.779 C 56.738 189.290,57.391 188.341,57.834 187.670 C 60.141 184.183,60.633 183.453,61.223 182.642 C 61.577 182.156,62.199 181.274,62.605 180.683 C 63.012 180.092,63.666 179.142,64.060 178.571 C 64.454 178.001,65.187 176.912,65.689 176.152 C 66.191 175.392,67.163 173.992,67.848 173.041 C 68.534 172.091,69.475 170.691,69.940 169.931 C 70.404 169.171,71.116 168.134,71.522 167.627 C 71.928 167.120,72.534 166.230,72.868 165.650 C 73.202 165.069,73.643 164.456,73.847 164.287 C 74.051 164.117,74.634 163.296,75.143 162.462 C 76.595 160.081,77.526 158.763,78.939 157.085 C 81.018 154.618,80.549 154.371,88.100 161.924 M117.735 163.473 C 118.643 163.727,120.120 163.825,123.034 163.826 C 129.522 163.828,129.951 164.130,128.569 167.713 C 127.866 169.534,127.114 170.303,124.958 171.402 C 124.022 171.880,113.434 171.733,112.327 171.228 C 109.138 169.771,109.308 168.643,113.349 164.441 C 115.036 162.688,114.972 162.702,117.735 163.473 M122.819 174.774 C 124.040 175.405,123.884 177.130,122.407 179.312 C 122.039 179.855,121.557 180.766,121.336 181.336 C 121.116 181.907,120.539 182.995,120.055 183.756 C 119.571 184.516,119.052 185.527,118.901 186.003 C 118.751 186.478,118.287 187.362,117.871 187.967 C 117.455 188.572,116.698 189.893,116.189 190.904 C 107.850 207.453,106.423 208.650,105.983 199.456 C 105.874 197.157,105.580 193.825,105.330 192.051 C 104.412 185.516,104.276 183.585,104.679 182.806 C 105.282 181.640,106.849 179.787,107.611 179.339 C 108.006 179.107,108.688 178.326,109.128 177.604 C 109.978 176.206,111.347 174.967,112.386 174.654 C 113.604 174.287,122.066 174.384,122.819 174.774 M98.087 179.594 C 101.934 181.385,102.544 182.309,102.781 186.697 C 102.886 188.628,103.075 190.933,103.202 191.820 C 104.935 203.884,104.677 206.449,101.525 208.479 C 101.003 208.815,100.076 209.530,99.465 210.068 C 97.724 211.600,95.274 211.690,90.804 210.388 C 89.485 210.003,87.307 209.576,85.965 209.439 C 82.444 209.079,81.114 208.833,77.858 207.941 C 76.261 207.503,73.877 207.038,72.558 206.908 C 69.377 206.593,66.631 206.085,64.494 205.416 C 63.460 205.093,61.319 204.720,59.259 204.505 C 53.441 203.898,52.720 203.303,54.761 200.798 C 55.625 199.737,56.169 199.327,57.545 198.700 C 58.485 198.271,59.583 197.671,59.985 197.365 C 60.386 197.060,61.270 196.592,61.950 196.325 C 62.630 196.057,63.615 195.545,64.139 195.186 C 64.663 194.827,65.922 194.117,66.935 193.608 C 67.949 193.099,69.615 192.261,70.636 191.746 C 71.658 191.232,73.029 190.451,73.682 190.011 C 74.336 189.571,75.256 189.084,75.725 188.929 C 76.195 188.774,77.169 188.266,77.890 187.800 C 78.611 187.334,79.707 186.763,80.326 186.531 C 80.945 186.299,81.923 185.768,82.498 185.351 C 83.074 184.934,84.086 184.380,84.746 184.120 C 85.407 183.859,86.446 183.304,87.054 182.885 C 87.663 182.466,88.673 181.931,89.299 181.695 C 89.925 181.458,90.895 180.954,91.453 180.574 C 93.822 178.960,96.026 178.635,98.087 179.594 " stroke="none" fill="#ff6b4a" fill-rule="evenodd"></path></g></svg>