<?xml version="1.0" standalone="no"?>
<!DOCTYPE svg PUBLIC "-//W3C//DTD SVG 20010904//EN"
 "http://www.w3.org/TR/2001/REC-SVG-20010904/DTD/svg10.dtd">
<svg version="1.0" xmlns="http://www.w3.org/2000/svg"
 width="300.000000pt" height="51.000000pt" viewBox="0 0 300.000000 51.000000"
 preserveAspectRatio="xMidYMid meet">
<metadata>
Created by potrace 1.10, written by Peter Selinger 2001-2011
</metadata>
<g transform="translate(0.000000,51.000000) scale(0.100000,-0.100000)"
fill="#000000" stroke="none">
<path d="M1082 489 c-107 -21 -144 -74 -150 -214 -5 -108 8 -163 49 -210 37
-41 80 -55 174 -55 150 0 203 63 204 240 0 135 -23 191 -92 223 -42 19 -131
27 -185 16z m128 -220 c0 -128 -6 -139 -70 -139 l-50 0 0 113 c0 63 3 117 7
120 3 4 30 7 60 7 l53 0 0 -101z"/>
<path d="M20 255 l0 -237 148 4 c168 4 207 16 244 77 19 30 23 53 26 146 3
100 1 114 -20 154 -39 73 -75 85 -250 89 l-148 4 0 -237z m258 103 c16 -16 16
-190 0 -206 -7 -7 -34 -12 -60 -12 l-48 0 0 115 0 115 48 0 c26 0 53 -5 60
-12z"/>
<path d="M500 255 l0 -235 70 0 70 0 0 70 c0 61 2 70 19 70 13 0 27 -20 49
-70 l31 -70 81 0 81 0 -40 77 -40 77 29 32 c49 57 51 177 3 234 -33 40 -77 50
-225 50 l-128 0 0 -235z m225 70 c0 -40 0 -40 -42 -43 l-43 -3 0 46 0 46 43
-3 c42 -3 42 -3 42 -43z"/>
<path d="M1420 255 l0 -235 70 0 70 0 0 96 0 97 63 -97 62 -96 68 0 67 0 0
235 0 235 -70 0 -69 0 -3 -92 -3 -92 -60 92 -60 92 -67 0 -68 0 0 -235z"/>
<path d="M1900 255 l0 -235 165 0 165 0 0 60 0 60 -95 0 c-95 0 -95 0 -95 25
0 24 2 25 75 25 l75 0 0 55 0 54 -72 3 -73 3 -3 33 -3 32 80 0 c44 0 82 3 84
8 3 4 8 31 12 60 l7 52 -161 0 -161 0 0 -235z"/>
<path d="M2550 486 c0 -2 22 -54 50 -115 l49 -111 -45 -108 c-25 -59 -48 -113
-51 -120 -4 -10 12 -12 73 -10 l79 3 25 62 c14 35 28 63 31 63 4 0 19 -29 34
-65 l28 -65 79 0 c43 0 78 3 78 6 0 3 -21 53 -46 112 -25 59 -46 114 -46 122
-1 8 20 61 45 118 26 56 47 104 47 107 0 3 -35 5 -78 5 l-77 0 -23 -60 c-13
-33 -27 -60 -32 -60 -5 0 -19 27 -32 60 l-23 60 -82 0 c-46 0 -83 -2 -83 -4z"/>
<path d="M2290 255 l0 -45 110 0 110 0 0 45 0 45 -110 0 -110 0 0 -45z"/>
</g>
</svg>
